<svg width="14" height="15" viewBox="0 0 14 15" fill="none" xmlns="http://www.w3.org/2000/svg">
<path d="M5.0506 7.88776C5.0506 7.70866 4.90532 7.56357 4.72608 7.56357H3.59363C3.41459 7.56357 3.26929 7.70866 3.26929 7.88776V9.02007C3.26929 9.1994 3.41459 9.34456 3.59363 9.34456H4.72608C4.90532 9.34456 5.0506 9.1994 5.0506 9.02007V7.88776Z" fill="#38B1DC"/>
<path d="M7.88074 7.88776C7.88074 7.70866 7.73544 7.56357 7.55655 7.56357H6.42395C6.24491 7.56357 6.09961 7.70866 6.09961 7.88776V9.02007C6.09961 9.1994 6.24491 9.34456 6.42395 9.34456H7.55655C7.73544 9.34456 7.88074 9.1994 7.88074 9.02007V7.88776Z" fill="#38B1DC"/>
<path d="M10.711 7.88776C10.711 7.70866 10.5657 7.56357 10.3867 7.56357H9.25421C9.07496 7.56357 8.92969 7.70866 8.92969 7.88776V9.02007C8.92969 9.1994 9.07496 9.34456 9.25421 9.34456H10.3867C10.5657 9.34456 10.711 9.1994 10.711 9.02007V7.88776Z" fill="#38B1DC"/>
<path d="M5.0506 10.7182C5.0506 10.5388 4.90532 10.3938 4.72608 10.3938H3.59363C3.41459 10.3938 3.26929 10.5388 3.26929 10.7182V11.8503C3.26929 12.0295 3.41459 12.1746 3.59363 12.1746H4.72608C4.90532 12.1746 5.0506 12.0295 5.0506 11.8503V10.7182Z" fill="#38B1DC"/>
<path d="M7.88074 10.7182C7.88074 10.5388 7.73544 10.3938 7.55655 10.3938H6.42395C6.24491 10.3938 6.09961 10.5388 6.09961 10.7182V11.8503C6.09961 12.0295 6.24491 12.1746 6.42395 12.1746H7.55655C7.73544 12.1746 7.88074 12.0295 7.88074 11.8503V10.7182Z" fill="#38B1DC"/>
<path d="M10.711 10.7182C10.711 10.5388 10.5657 10.3938 10.3868 10.3938H9.25421C9.07496 10.3938 8.92969 10.5388 8.92969 10.7182V11.8503C8.92969 12.0295 9.07496 12.1746 9.25421 12.1746H10.3868C10.5657 12.1746 10.711 12.0295 10.711 11.8503V10.7182Z" fill="#38B1DC"/>
<path fill-rule="evenodd" clip-rule="evenodd" d="M12.736 3.32146V1.59196C13.4191 1.61255 13.9804 2.1778 13.9804 2.87255V13.0082C13.9804 13.7149 13.4056 14.2974 12.6988 14.2974H1.28153C0.573707 14.2974 0 13.7161 0 13.0082V2.87255C0 2.1778 0.561318 1.61255 1.24442 1.59196V3.32146C1.24442 4.10318 1.87855 4.73312 2.66012 4.73312H3.55339C4.33493 4.73312 4.97747 4.10318 4.97747 3.32146V1.58575H9.00291V3.32146C9.00291 4.10318 9.64547 4.73312 10.4271 4.73312H11.3202C12.1018 4.73312 12.736 4.10318 12.736 3.32146ZM11.7671 12.9311C12.0732 12.9311 12.3212 12.683 12.3212 12.3771L12.3211 7.14162C12.3211 6.83561 12.0731 6.58744 11.7671 6.58744H2.18883C1.8828 6.58744 1.63481 6.83561 1.63481 7.14162V12.3771C1.63481 12.683 1.88282 12.9311 2.18883 12.9311H11.7671Z" fill="#38B1DC"/>
<path d="M2.65693 3.80592H3.54034C3.80848 3.80592 4.02589 3.58883 4.02589 3.32069V0.485402C4.02589 0.217234 3.80848 0 3.54034 0H2.65693C2.38877 0 2.17139 0.217234 2.17139 0.485402V3.32069C2.17139 3.58883 2.38877 3.80592 2.65693 3.80592Z" fill="#38B1DC"/>
<path d="M10.4158 3.80592H11.2992C11.5672 3.80592 11.7846 3.58883 11.7846 3.32069V0.485402C11.7846 0.217234 11.5672 0 11.2992 0H10.4158C10.1477 0 9.9303 0.217234 9.9303 0.485402V3.32069C9.9303 3.58883 10.1477 3.80592 10.4158 3.80592Z" fill="#38B1DC"/>
</svg>
