<svg width="68" height="24" viewBox="0 0 68 24" fill="currentColor" xmlns="http://www.w3.org/2000/svg">
<path d="M0.856934 18.7121C0.885414 18.7121 0.913894 18.7121 0.913894 18.6836C0.894907 18.6836 0.856934 18.6836 0.856934 18.7121Z" fill="currentColor"/>
<path d="M10.6245 8.2316C10.653 8.2316 10.6815 8.2316 10.6815 8.20312C10.653 8.20312 10.6245 8.20312 10.6245 8.2316Z" fill="currentColor"/>
<path d="M15.7431 11.143C15.5083 10.4199 15.0857 9.61216 14.5503 9.07682C14.3437 8.89838 14.0995 8.84202 13.8929 8.68236C13.7426 8.62601 13.7145 8.50392 13.5924 8.44757C13.1979 8.32547 12.8129 8.14703 12.3996 8.09068C12.0052 8.0625 11.6201 8.14703 11.235 8.0625C11.0848 8.15642 10.7842 8.11885 10.6058 8.09068C10.5118 8.18459 10.5118 8.18459 10.3991 8.11885C10.3052 8.21277 10.4555 8.21277 10.4931 8.26912C9.46935 8.41939 8.72739 8.8702 7.74125 9.22709C7.74125 9.31162 7.76942 9.28344 7.74125 9.33979C7.61915 9.36797 7.53463 9.39614 7.44071 9.33979C7.41253 9.61216 7.05564 9.54641 7.01807 9.7906C6.78328 9.81878 6.56726 9.94087 6.45456 10.1851C6.42638 10.1851 6.42638 10.1287 6.36064 10.1287C6.30429 10.2132 6.08828 10.2508 6.1822 10.4011C6.0601 10.4011 6.0601 10.5513 5.90983 10.5232C5.90983 10.495 5.93801 10.495 5.93801 10.4292C5.84409 10.4292 5.78774 10.5513 5.84409 10.5795C5.84409 10.5513 5.90044 10.5513 5.90044 10.5795C5.84409 10.6077 5.80652 10.6734 5.75017 10.6734C5.65625 10.7674 5.5999 10.8801 5.47781 10.8801C5.27118 11.1149 4.99882 11.4436 4.75463 11.5093C4.99882 11.3027 5.20544 11.0585 5.47781 10.8801C5.47781 10.7861 5.5999 10.8237 5.5999 10.7016C5.14909 11.0585 4.69828 11.4248 4.39774 11.8662C4.54801 11.838 4.60436 11.5657 4.75463 11.5938C4.63254 11.7441 4.51984 11.8662 4.36957 11.9507C4.36957 12.0071 4.36957 12.0728 4.31321 12.0446C4.28504 12.0446 4.28504 12.0165 4.31321 11.9883C4.19112 11.9883 4.2193 12.1104 4.2193 12.1949C4.16294 12.2231 4.16294 12.1667 4.12538 12.1667C4.12538 12.4955 3.79666 12.7678 3.74031 13.1247C3.89058 13.1247 3.79666 12.8899 3.94693 12.8899C3.59004 13.5473 3.4116 14.449 4.0972 14.834C4.04085 14.928 4.18173 15.0125 4.24747 15.0407C4.57619 15.0125 4.81098 14.8622 4.9049 14.5617C4.81098 14.5053 4.81098 14.355 4.69828 14.3175C4.75463 14.2611 4.69828 14.2611 4.69828 14.1672C5.027 13.444 5.41206 12.7866 5.95679 12.2513C6.5203 11.6784 7.24348 11.1994 8.05118 10.8143C8.22962 10.7298 8.43624 10.5795 8.65226 10.4856C9.25334 10.2508 9.96712 10.0066 10.7185 9.88452C10.7185 9.82817 10.8406 9.82817 10.8969 9.76243C11.019 9.85635 11.3759 9.76243 11.6764 9.76243C12.3996 9.76243 13.1134 9.76243 13.799 10.1193C13.9774 11.0491 13.4985 12.1574 12.9913 12.7866C11.9488 14.4584 10.4179 15.6323 8.85888 16.7969C7.90091 17.398 6.94294 18.0836 5.92862 18.4781C5.93801 18.4405 5.21483 18.7974 5.21483 18.8068C4.25686 19.4079 2.84808 19.7929 1.91829 20.0371C1.79619 19.9808 1.6741 20.0653 1.58957 20.009C1.53322 20.0371 1.58957 20.1592 1.50505 20.131C1.4487 20.131 1.41113 20.1029 1.41113 20.0747C1.61775 19.6521 1.65532 19.267 1.89011 18.8162C1.89011 18.9289 1.94646 18.8444 1.98403 18.8162C1.98403 18.6941 1.92768 18.8162 1.86194 18.788C1.89011 18.6941 1.98403 18.6659 1.98403 18.5532C1.86194 18.5814 1.86194 18.8538 1.77741 18.788C1.83376 18.5532 2.1343 18.3654 1.98403 18.0648C2.07795 18.093 2.01221 17.9803 2.07795 17.9427C2.04977 17.9991 2.10613 17.9991 2.1343 17.9991C2.16248 17.9709 2.1343 17.877 2.10613 17.8206C1.8995 17.9709 1.83376 18.2151 1.68349 18.3936C1.65532 18.2433 1.77741 18.2715 1.73984 18.1212C1.65532 18.0273 1.61775 18.2715 1.5614 18.1775C1.61775 18.0836 1.71167 18.0273 1.71167 17.8488C1.50505 17.9991 1.46748 18.4217 1.26086 18.4217C1.31721 18.5438 1.26086 18.6283 1.13876 18.6283C1.11059 18.572 1.26086 18.4781 1.16694 18.4217C1.13876 18.4781 1.13876 18.5438 1.07302 18.572C1.01667 18.4217 1.12937 18.4217 1.12937 18.2996C0.979102 18.5438 0.678562 18.6565 0.744305 18.9007C0.687954 18.9571 0.650387 18.8725 0.594036 18.9289C0.594036 19.2858 0.349847 19.3515 0.293496 19.5863C0.26532 19.5863 0.26532 19.53 0.208969 19.53C0.208969 19.6521 0.152618 19.6802 0.180793 19.7648C-0.119746 19.8587 0.0586992 20.1217 0.00234797 20.3377C0.152618 20.4598 0.331063 20.5725 0.481333 20.61C0.481333 20.7039 0.359239 20.6382 0.387414 20.7321C0.481333 20.7885 0.481333 20.8824 0.594036 20.9106C0.950926 21.5398 1.70228 21.8685 2.53815 21.8404C2.7166 21.7183 3.13923 21.8404 3.2895 21.6901C3.94693 21.6619 4.48227 21.4835 5.05517 21.2111C5.76895 20.9763 6.37003 20.7885 6.94294 20.3471C7.2153 20.3471 7.47827 20.1123 7.75064 19.9244C8.85888 19.4736 9.58205 18.8162 10.6245 18.2808C11.0754 17.8582 11.5543 17.5013 12.0897 17.1444C13.0758 16.2146 14.0338 15.2567 14.8415 14.1484V13.9982C15.4426 13.2374 15.8276 12.1198 15.7431 11.143ZM1.70228 18.9195C1.70228 18.8068 1.81498 18.9195 1.70228 18.9195C1.70228 18.9758 1.73045 19.0698 1.64592 19.0416C1.63653 18.9852 1.63653 18.9477 1.70228 18.9195ZM0.11505 20.2437C0.171402 20.2437 0.208969 20.2719 0.208969 20.3377C0.171402 20.3001 0.0868747 20.3283 0.11505 20.2437ZM1.04485 18.9477C0.960318 18.9195 1.07302 18.835 1.04485 18.741C1.15755 18.741 1.07302 18.9477 1.04485 18.9477Z" fill="currentColor"/>
<path d="M6.46456 10.0625C6.46456 10.091 6.43608 10.091 6.4076 10.091C6.39811 10.0625 6.42659 10.0625 6.46456 10.0625Z" fill="currentColor"/>
<path d="M3.34591 23.7931C3.36469 23.7743 3.42104 23.6616 3.42104 23.6428C3.37408 23.6616 3.32712 23.6803 3.28016 23.6991C3.52435 22.5064 10.4837 10.1561 10.9064 9.10418C11.3853 8.41857 11.6859 7.54513 12.2212 6.8877C12.0428 6.34297 11.592 6.05182 11.2632 5.65736C11.0848 5.62919 10.9345 5.80763 10.8124 5.68554C10.7843 5.74189 10.7561 5.80763 10.6622 5.77946C9.79812 7.33851 2.56638 20.4026 1.78686 22.018C1.75868 22.3467 1.51449 22.7693 1.73051 23.0699C1.78686 23.1262 1.81503 23.0417 1.88078 23.0981C1.9653 23.3986 2.15314 23.9527 2.45368 23.9809C2.50064 23.9903 2.55699 23.9997 2.59456 23.9997C2.81996 23.9809 3.01719 23.9621 3.21442 23.8964C3.26138 23.8776 3.29895 23.84 3.34591 23.7931Z" fill="currentColor"/>
<path d="M20.3819 9.40455C20.3819 9.32941 20.3725 9.24488 20.3161 9.18853C20.2598 9.13218 20.1941 9.13218 20.1283 9.13218C19.9968 9.13218 19.8747 9.12279 19.7526 9.09461C19.6305 9.06644 19.6399 8.89738 19.5366 8.84103C19.4051 8.7659 19.2924 8.70955 19.1422 8.79407C19.1422 8.79407 19.1422 8.79407 19.1328 8.79407C19.1234 8.78468 19.1234 8.78468 19.1234 8.78468C19.0764 8.74712 19.0389 8.70955 18.9919 8.68137C18.898 8.62502 18.7947 8.61563 18.6914 8.63441C18.4472 8.60624 18.3345 8.60624 18.1185 8.63441C17.6395 9.47029 17.1511 10.7006 16.7097 11.6868C16.4373 11.9591 16.4091 12.4663 16.1462 12.7387C16.1462 12.795 16.1743 12.795 16.1743 12.8608C15.6672 13.5745 15.4887 14.4762 14.9816 15.1993C15.0379 15.4341 14.7092 15.5844 14.8031 15.8568C14.681 15.9131 14.5683 16.0916 14.6247 16.2418H14.5401C14.5401 16.2982 14.6247 16.3921 14.512 16.3921V16.5142C14.4838 16.5424 14.4181 16.5424 14.3617 16.5424C14.4181 16.8429 14.0048 16.9368 14.1833 17.1716C14.1269 17.1998 14.1269 17.2937 14.0893 17.3219C14.0142 17.2655 13.9579 17.3595 13.9485 17.4722C13.9391 17.5003 13.9391 17.5285 13.9485 17.5567C13.9579 17.5849 13.9672 17.613 13.9766 17.6506C13.9766 17.66 13.9766 17.66 13.9766 17.6694C13.9015 17.7821 13.9015 17.9793 13.7606 18.0545C13.6761 18.2611 13.6385 18.355 13.5916 18.571C13.5446 18.6274 13.5446 18.7307 13.5916 18.787C13.5916 18.7964 13.601 18.8152 13.601 18.8246C13.6104 18.8622 13.6197 18.8997 13.6385 18.9373C13.6479 18.9561 13.6573 18.9655 13.6667 18.9842C13.5822 19.2942 13.385 19.5853 13.2535 19.8765C13.2629 19.8859 13.2629 19.8953 13.2722 19.8953C13.2722 19.9047 13.2629 19.9046 13.2629 19.914C13.1783 20.1207 13.0938 20.3273 13.0844 20.5621C13.0844 20.609 13.0844 20.6466 13.075 20.6842C13.0468 20.7687 13.0281 20.8626 13.0093 20.9659C13.0187 20.9659 13.0187 20.9565 13.0281 20.9565C13.0281 20.9753 13.0281 20.9941 13.0281 21.0129C13.0375 21.0411 13.0468 21.0692 13.0656 21.0974C13.075 21.1068 13.075 21.1162 13.0844 21.1162C13.0844 21.1819 13.1502 21.2383 13.2065 21.2571C13.1971 21.2759 13.1877 21.2946 13.1877 21.3228C13.338 21.2383 13.2159 21.4167 13.338 21.4167C13.4319 21.2101 13.5164 21.0223 13.6667 20.872C13.6667 20.9284 13.6385 20.9659 13.6385 20.9941C13.7606 21.0223 13.6949 20.872 13.7888 20.872C13.817 20.9284 13.6949 21.0223 13.7888 21.0505C13.9391 20.8157 14.0236 20.5527 14.2302 20.4024C14.2396 20.393 14.2584 20.393 14.2678 20.3836C14.3523 20.3085 14.3523 20.2052 14.3899 20.1019C14.4181 20.0174 14.4744 19.9328 14.5308 19.8577H14.5401C14.5401 19.8483 14.5401 19.8483 14.5401 19.8389C14.5871 19.7638 14.6341 19.6886 14.681 19.6135C14.6904 19.6135 14.6998 19.6135 14.7186 19.6135C14.728 19.5759 14.7374 19.5478 14.7374 19.5102C14.7749 19.4351 14.8125 19.3505 14.8501 19.2754C14.8595 19.2754 14.8783 19.2848 14.897 19.313C14.897 19.2754 14.897 19.2378 14.897 19.2097C14.9158 19.1815 14.944 19.1533 14.9722 19.1251C15.1694 19.097 15.2351 18.8809 15.3197 18.7401C15.3103 18.7401 15.3009 18.7307 15.3009 18.7307C15.3385 18.6649 15.376 18.6086 15.423 18.5522C15.4512 18.524 15.4606 18.4959 15.4699 18.4677C15.4887 18.4395 15.4981 18.4113 15.4981 18.3832C15.5169 18.3644 15.5263 18.3456 15.5263 18.3268C15.5263 18.3174 15.5357 18.308 15.5357 18.2986V18.2892C15.5451 18.2799 15.5451 18.2705 15.5545 18.2611H15.5826C15.5826 18.2517 15.5733 18.2423 15.5733 18.2329C15.5733 18.2235 15.5826 18.2235 15.5826 18.2235C15.592 18.2141 15.6014 18.2047 15.6014 18.1953C15.6202 18.1765 15.639 18.1578 15.6578 18.139C15.7047 18.092 15.7611 18.0451 15.8081 17.9981C15.8081 18.0169 15.8081 18.0357 15.8174 18.0545C15.8456 17.9981 15.9395 17.9981 15.9959 17.9605C16.0241 17.829 16.0616 17.707 16.0992 17.5849C16.1086 17.5661 16.118 17.5473 16.118 17.5285C16.2213 17.2468 16.3716 17.012 16.5312 16.7866C16.5312 16.6081 16.6251 16.3076 16.8318 16.2512C16.8036 16.1291 16.8318 15.8943 16.982 15.8943C16.982 15.6595 17.076 15.5374 17.1887 15.4153C17.0384 15.4153 17.2168 15.2651 17.2168 15.2369C17.245 15.2369 17.245 15.2932 17.2732 15.2932C17.3295 15.2369 17.245 15.1712 17.2168 15.143C17.245 15.1148 17.2732 15.0584 17.3107 15.0303C17.3389 15.0584 17.2826 15.1805 17.3389 15.1805C17.3671 15.0866 17.4328 15.0303 17.461 14.9457C17.3671 14.8894 17.3671 15.0678 17.3389 14.9739C17.3389 14.88 17.3953 14.8518 17.4328 14.8237C17.4047 14.9082 17.4892 14.88 17.9682 14.3447C17.94 14.3728 17.94 14.401 17.94 14.4668C18.0903 14.4386 17.9964 14.2601 17.9682 14.1944C18.1185 14.0441 18.1185 13.7436 18.2687 13.5933C18.2969 13.6215 18.2687 13.7436 18.2405 13.7999C18.3626 13.6215 18.5693 13.3491 18.5411 13.1143C18.4472 13.227 18.4472 13.5651 18.3063 13.537C18.4284 13.3022 18.4566 12.9922 18.6632 12.8514C18.6632 12.9453 18.5787 12.9735 18.5787 13.0955C18.851 12.6729 19.0013 12.1939 19.2079 11.7807C19.2079 11.6868 19.1516 11.7243 19.1797 11.6304C19.2361 11.6304 19.2361 11.6586 19.3018 11.6586C19.546 11.1514 19.7245 10.5785 20.1095 10.2216C20.1095 10.2029 20.1095 10.1935 20.1095 10.1747C20.1471 10.1371 20.1659 10.0995 20.1847 10.062C20.288 9.83657 20.3725 9.62995 20.3819 9.40455Z" fill="black"/>
<path d="M25.2003 14.2509C25.2003 14.2227 25.1722 14.2509 25.1722 14.2509C24.9374 14.1663 24.4866 14.279 24.0921 14.373C23.9982 14.1945 23.7352 14.2227 23.5568 14.2227C23.5849 14.1945 23.5849 14.1006 23.6789 14.1382C23.6507 14.0161 23.5004 14.1663 23.4441 14.0442C23.4441 13.894 23.6225 13.9597 23.6225 13.8376C23.5943 13.7249 23.4722 13.8658 23.3501 13.8376C23.5004 13.7813 23.5568 13.631 23.6507 13.5089C23.6789 13.415 23.5943 13.4526 23.5568 13.415C23.7352 13.3023 23.9794 13.415 24.0076 13.1802C24.1578 13.3305 24.2424 13.0299 24.3081 13.1802C24.3081 13.1238 24.402 13.0675 24.4866 13.0675C24.5429 13.1238 24.4866 13.1238 24.4584 13.1802C24.5805 13.1802 24.6087 13.1238 24.5523 13.0299C24.6462 13.0863 24.7026 13.0018 24.7589 12.9736C24.7589 12.8891 24.5805 13.0957 24.5805 12.9454C25.3882 12.7388 26.2898 12.673 26.8533 12.2598C26.9472 12.2316 26.9472 12.3161 27.0036 12.288C27.0975 12.3161 27.0318 12.1659 27.0975 12.1659C27.1914 12.1377 27.3699 12.288 27.398 12.1095C27.4544 12.1095 27.4544 12.1659 27.4262 12.2034C27.9334 11.8184 28.9195 12.2974 29.1355 11.6024C29.5863 11.546 29.4924 12.025 29.8211 12.0532C30.0559 12.3537 30.3283 12.6167 30.4222 13.0393C30.5443 13.1614 30.6946 13.2178 30.6946 13.3962C30.6664 13.3962 30.6664 13.4526 30.6664 13.4901C30.6101 13.4901 30.5725 13.5465 30.5161 13.6122C30.1311 13.7061 30.0372 14.1194 29.6521 14.2415C29.4173 14.542 29.1449 14.7862 28.8162 14.9928C28.7599 15.1431 28.5814 15.1431 28.5157 15.3215C28.187 15.4436 28.0367 15.7724 27.7361 15.9226C27.5859 16.0447 27.5295 16.2232 27.3135 16.2795C27.0787 16.5519 26.7124 16.7303 26.5058 17.0215C26.2334 17.0778 26.1489 17.3502 25.8766 17.4441C25.2755 17.8949 24.712 18.4021 23.9888 18.7965C23.7164 19.0971 23.2656 19.2473 22.9651 19.5479C22.9369 19.5479 22.9369 19.5197 22.8806 19.5197C22.1574 20.0832 21.2652 20.4495 20.3072 20.6843C20.3072 20.6561 20.3354 20.6561 20.3354 20.6279C20.0912 20.7782 19.8846 20.5998 19.7343 20.75C18.626 20.5998 18.0907 19.8766 17.6117 19.0689C17.7056 18.9468 17.7056 19.1816 17.7902 19.1252C17.8183 19.0032 17.6117 19.0407 17.6962 18.9186C17.6399 18.8623 17.6681 18.975 17.546 18.9468C17.4896 18.8341 17.5178 18.8341 17.4896 18.6463C17.3957 18.5899 17.4333 18.3739 17.3394 18.2518C17.3957 18.1297 17.3675 17.9513 17.3675 17.801C17.3957 17.7071 17.4615 17.6507 17.4239 17.5005C17.8183 16.5143 18.1095 15.6127 18.8327 14.9553C18.889 14.805 18.9172 14.6265 19.0675 14.5702C19.0675 14.4763 19.1238 14.4481 19.0956 14.3636C19.368 14.1851 19.4901 13.9128 19.7531 13.7625C20.2602 12.8609 21.0679 12.2692 21.669 11.4239C21.6408 11.3018 21.5187 11.6024 21.5187 11.4239C21.6408 11.3676 21.8193 11.2736 21.9132 11.2455C21.9132 11.3957 21.7629 11.3676 21.7347 11.4803C21.7911 11.5084 21.9695 11.4239 21.9414 11.2736C22.2419 11.067 22.4485 10.6444 22.7209 10.5317C23.0496 10.1091 23.5849 9.50798 24.0733 9.27318C24.4584 8.70028 25.2097 8.58758 25.6887 8.0992C25.6887 8.07102 25.6324 8.07102 25.6324 8.01467C26.0268 7.83623 26.6185 7.92075 27.013 7.89258C27.0693 7.9865 27.1351 8.13677 27.2572 8.04285C27.2853 8.31521 27.5577 8.13677 27.6422 8.31521C27.6704 8.37156 27.6141 8.37156 27.6141 8.43731C27.8489 8.58758 27.9146 8.91629 28.1494 9.09474C28.0555 9.4892 27.492 9.4892 27.1914 9.32953C27.0693 9.42345 26.8909 9.4798 26.7124 9.53615C25.8766 10.0715 25.0031 10.588 24.3739 11.33C23.1717 12.4664 22.0635 13.7249 21.1055 15.1055C20.326 16.0917 19.7531 17.1154 19.2459 18.4021C19.2741 18.5148 19.2177 18.5523 19.2177 18.6744C19.1238 18.7308 19.1238 18.8529 19.1614 18.9468C21.5 18.2894 22.9933 16.7585 24.8247 15.5939C24.8247 15.5657 24.8247 15.5376 24.7965 15.5376C25.1252 15.3309 25.4257 15.1149 25.6324 14.8238C25.7826 14.9083 25.839 14.6453 25.9329 14.7017C26.0832 14.4951 26.2334 14.3166 26.5058 14.2227C26.3837 14.0442 25.9705 14.279 25.6981 14.2509C25.6699 14.1945 25.7263 14.1945 25.6699 14.1288C25.5478 14.1288 25.4915 14.1851 25.3412 14.157C25.313 14.2133 25.2849 14.2697 25.2191 14.3354C25.2191 14.3354 25.191 14.3072 25.191 14.279C25.2003 14.2509 25.2003 14.2509 25.2003 14.2509ZM19.9879 13.199C19.9879 13.2272 19.9597 13.2272 19.9315 13.2272C19.9221 13.199 19.9879 13.199 19.9879 13.199ZM20.0724 13.0581C20.1006 13.0299 20.1287 13.0299 20.1287 12.9642C20.2602 12.9924 20.1381 13.1426 20.0724 13.0581ZM20.2227 12.9642C20.1945 12.9642 20.2227 12.9078 20.1945 12.8515C20.3448 12.8421 20.2227 12.9078 20.2227 12.9642ZM20.2884 13.2647C20.2884 13.2365 20.2884 13.2365 20.2884 13.199C20.2884 13.199 20.2602 13.199 20.232 13.199C20.232 13.2272 20.232 13.2272 20.232 13.2647C20.2602 13.2647 20.2884 13.2647 20.2884 13.2647ZM20.2884 12.7857C20.3166 12.7576 20.3448 12.7576 20.3448 12.6918C20.4668 12.72 20.4011 12.8139 20.2884 12.7857ZM20.4668 12.6918C20.4105 12.6355 20.495 12.5134 20.5608 12.5416C20.5889 12.6355 20.5232 12.6636 20.4668 12.6918ZM20.7016 12.3631C20.6735 12.3913 20.7016 12.5134 20.5795 12.4852C20.6077 12.457 20.6359 12.4288 20.6077 12.3631C20.6453 12.3631 20.6735 12.3631 20.7016 12.3631ZM20.7956 12.3349C20.7016 12.3068 20.7956 12.2504 20.7956 12.1847C20.8895 12.1847 20.8237 12.3349 20.7956 12.3349ZM21.0961 12.4288C21.1243 12.4288 21.1525 12.4288 21.1525 12.4007C21.1525 12.3913 21.0961 12.3913 21.0961 12.4288ZM21.1243 11.8559C21.1806 11.762 21.2745 11.7057 21.3309 11.6493C21.3027 11.7339 21.2745 11.8559 21.1243 11.8559ZM21.4812 11.5272C21.4812 11.5836 21.3872 11.6211 21.3309 11.6493C21.3685 11.5554 21.4248 11.4615 21.4812 11.5272ZM21.7254 11.5272C21.6314 11.5272 21.5187 11.6775 21.5469 11.7339C21.6033 11.6775 21.6972 11.6118 21.7254 11.5272ZM21.7535 19.7263C21.7254 19.7263 21.6596 19.7263 21.6596 19.7827C21.7254 19.7921 21.7535 19.7545 21.7535 19.7263ZM21.932 11.2549C21.932 11.2549 21.9038 11.2549 21.9038 11.2267C21.932 11.2267 21.9602 11.2267 21.932 11.2549ZM22.0259 11.0764C22.0259 11.0201 22.0541 10.9543 22.1198 10.9543C22.0822 10.9825 22.1386 11.1046 22.0259 11.0764ZM22.1104 19.5197C22.1386 19.5197 22.1668 19.5197 22.1668 19.4915C22.1762 19.4915 22.1104 19.4915 22.1104 19.5197ZM22.5331 10.9262C22.4767 10.898 22.5049 10.9825 22.4485 11.0107C22.5331 11.0201 22.5612 10.9825 22.5331 10.9262ZM22.7115 10.6538C22.7115 10.6256 22.5049 10.7759 22.5612 10.8322C22.6176 10.7759 22.6551 10.7195 22.7115 10.7195C22.7115 10.7477 22.6833 10.7477 22.6833 10.7759C22.8054 10.7477 22.8618 10.682 22.8618 10.5974C22.8336 10.5974 22.8336 10.5411 22.7679 10.5411C22.7115 10.5974 22.8618 10.6914 22.7115 10.7195C22.7115 10.6914 22.7115 10.6914 22.7115 10.6538ZM23.1341 10.3908C23.1341 10.3345 23.1905 10.2124 23.106 10.2124C23.1341 10.3345 22.9557 10.419 23.012 10.4847C23.0402 10.419 23.0966 10.419 23.1341 10.3908ZM23.2187 10.2969C23.2468 10.2687 23.275 10.2405 23.275 10.1748C23.3971 10.1748 23.4253 10.1184 23.4253 10.0245C23.3689 10.0527 23.3314 10.1466 23.275 10.1748C23.2187 10.1466 23.1623 10.2969 23.2187 10.2969ZM23.3126 10.0621C23.2844 10.0621 23.2562 10.0903 23.2187 10.1184C23.2844 10.1184 23.3126 10.0903 23.3126 10.0621ZM23.5756 9.84609C23.5756 9.94 23.4816 9.90244 23.4535 9.96818C23.5474 10.0621 23.6695 9.91183 23.5756 9.84609ZM23.5192 13.415C23.5192 13.4432 23.491 13.4432 23.4628 13.4432C23.4628 13.415 23.5192 13.415 23.5192 13.415ZM23.5756 18.5899C23.5192 18.5617 23.4535 18.7026 23.5192 18.7026C23.5474 18.6838 23.6413 18.6838 23.5756 18.5899ZM23.6413 9.73338C23.5849 9.70521 23.5192 9.8273 23.5849 9.8273C23.6131 9.78973 23.6413 9.76156 23.6413 9.73338ZM23.7634 18.5054C23.7352 18.449 23.6131 18.5617 23.6695 18.5993C23.6695 18.5336 23.7634 18.5617 23.7634 18.5054ZM23.6976 13.8282C23.7258 13.8282 23.754 13.8282 23.754 13.8282C23.7822 13.8282 23.7822 13.8001 23.7822 13.8001C23.7822 13.7719 23.7822 13.7719 23.7822 13.7437C23.7822 13.7437 23.754 13.7437 23.7258 13.7437C23.7258 13.7719 23.7258 13.7719 23.6976 13.7719C23.6976 13.8001 23.6976 13.8001 23.6976 13.8282ZM23.7634 13.3774C23.7916 13.4056 23.6413 13.4713 23.7352 13.4995C23.7258 13.4713 23.8761 13.415 23.7634 13.3774ZM23.7258 9.63946C23.7916 9.63946 23.7258 9.61129 23.7258 9.63946C23.6976 9.66764 23.7634 9.66764 23.7258 9.63946ZM23.8761 9.61129C23.9043 9.61129 23.9324 9.61129 23.9324 9.58311C23.9418 9.57372 23.8761 9.57372 23.8761 9.61129ZM23.9418 18.4115C23.9418 18.3833 23.9982 18.3833 23.9982 18.3551C23.97 18.3551 23.97 18.3269 23.9043 18.3551C23.9418 18.3833 23.9043 18.4115 23.9418 18.4115ZM23.9418 13.7719C23.97 13.7719 23.9982 13.7719 23.9982 13.7437C23.9982 13.7437 23.9418 13.7437 23.9418 13.7719ZM24.0545 9.3671C24.0827 9.3671 24.1109 9.3671 24.1109 9.33893C24.1203 9.33893 24.0545 9.33892 24.0545 9.3671ZM24.1203 18.2612C24.1485 18.2612 24.1766 18.2612 24.1766 18.233C24.1766 18.233 24.1203 18.233 24.1203 18.2612ZM24.2706 17.9607C24.2987 17.9607 24.3269 17.9607 24.3269 17.9325C24.3269 17.9325 24.2706 17.9325 24.2706 17.9607ZM24.3551 9.31075C24.3551 9.28257 24.3551 9.28257 24.3551 9.2544C24.3551 9.2544 24.3269 9.2544 24.2987 9.2544C24.2987 9.28257 24.2987 9.28257 24.2987 9.31075C24.3269 9.31075 24.3551 9.31075 24.3551 9.31075ZM24.3926 8.77541C24.3926 8.80359 24.3926 8.80359 24.3926 8.83176C24.3926 8.83176 24.3645 8.83176 24.3363 8.83176C24.3363 8.80359 24.3363 8.80359 24.3363 8.77541C24.3551 8.77541 24.3926 8.77541 24.3926 8.77541ZM24.5335 9.01021C24.5617 9.01021 24.5899 9.01021 24.5899 8.98203C24.5993 8.98203 24.5335 8.98203 24.5335 9.01021ZM24.8059 12.936C24.8059 12.9642 24.7777 12.9924 24.8059 13.0299C24.8341 12.9924 24.8622 12.9642 24.8059 12.936ZM24.9562 17.4535C24.9843 17.4535 25.0125 17.4535 25.0125 17.4253C25.0219 17.4253 24.9562 17.4253 24.9562 17.4535ZM24.9843 12.9642C25.0125 12.9642 25.0407 12.9642 25.0407 12.936C25.0501 12.936 24.9843 12.936 24.9843 12.9642ZM25.2003 12.8703C25.1722 12.8703 25.1064 12.8984 25.0783 12.9266C25.1628 12.936 25.2003 12.936 25.2003 12.8703ZM25.7357 16.89C25.7075 16.89 25.6793 16.9182 25.6418 16.9463C25.7075 16.9463 25.7357 16.9182 25.7357 16.89ZM26.2428 7.96771C26.1207 7.96771 25.8202 7.91136 25.7075 8.05224C25.9141 8.05224 26.0926 8.08042 26.2428 7.96771ZM26.1207 14.0067C26.0644 14.0349 25.9705 14.0349 25.9141 14.063C26.008 14.0349 26.1489 14.1288 26.1207 14.0067ZM26.1207 16.6176C26.1207 16.5801 26.0926 16.6176 26.1207 16.6176C26.1489 16.674 26.1865 16.6176 26.1207 16.6176ZM26.271 7.96771C26.2992 7.96771 26.3274 7.96771 26.3274 7.93954C26.3368 7.93015 26.271 7.93015 26.271 7.96771ZM26.5434 7.90197C26.5152 7.90197 26.487 7.93015 26.4495 7.95832C26.5152 7.96771 26.5434 7.93015 26.5434 7.90197ZM27.8301 15.1149C27.8582 15.1149 27.8864 15.1149 27.8864 15.0867C27.8958 15.0867 27.8301 15.0867 27.8301 15.1149ZM28.9101 14.6641C28.882 14.6641 28.8538 14.6923 28.8256 14.7205C28.882 14.7299 28.9101 14.7017 28.9101 14.6641Z" fill="currentColor"/>
<path d="M34.6495 11.0576L34.6589 10.9073C34.5462 10.8134 34.3677 10.7477 34.3395 10.541C34.1611 10.5316 34.1047 10.3814 33.9263 10.3814C33.992 10.2593 33.6915 10.2499 33.7009 10.0996C33.4567 10.0621 33.344 10.0527 33.128 10.0808C32.6208 10.8979 32.2264 11.9968 31.738 12.9641C31.4562 13.2271 31.4093 13.7343 31.1369 13.9879C31.1369 14.0442 31.1651 14.0536 31.1651 14.1099C30.6298 14.8049 30.8364 15.0961 30.301 15.8005C30.348 16.0447 30.0193 16.1762 30.0944 16.4485C29.9723 16.5049 29.8502 16.6833 29.8972 16.8336H29.8127C29.8127 16.8899 29.8972 16.9839 29.7751 16.9839V17.106C29.7469 17.1341 29.6812 17.1341 29.6248 17.1341C29.6718 17.4347 29.2491 17.5098 29.4182 17.754C29.3619 17.7822 29.3525 17.8479 29.3337 17.8855C29.3243 17.8855 29.3243 17.8949 29.3149 17.8949C29.2492 17.8573 29.2022 17.923 29.1834 18.0076C29.1552 18.0451 29.1271 18.0827 29.1083 18.1203C29.0801 18.1766 29.0613 18.233 29.0425 18.2893C29.0425 18.2987 29.0425 18.2987 29.0331 18.3081C29.0331 18.3081 29.0331 18.3081 29.0331 18.3175C29.0237 18.3363 29.0144 18.3551 29.0144 18.3739C28.9956 18.402 28.9768 18.4302 28.958 18.4584C28.9298 18.5147 28.8923 18.5805 28.8641 18.665C28.911 18.6838 28.9298 18.665 28.9392 18.6462C28.9392 18.6556 28.9392 18.665 28.9392 18.6744C28.8923 18.7495 28.8547 18.8341 28.8171 18.9186C28.7514 19.0595 28.7138 19.2097 28.6762 19.36C28.6293 19.5197 28.5917 19.5948 28.526 19.7263C28.4978 19.7732 28.4884 19.8202 28.4696 19.8766C28.4696 19.8766 28.4696 19.8766 28.4602 19.8766V19.9329C28.4508 19.9893 28.4508 20.0362 28.4696 20.0926C28.479 20.1395 28.479 20.1959 28.4696 20.2147C28.4415 20.271 28.4321 20.3368 28.4321 20.4025C28.4321 20.4119 28.4227 20.4213 28.4227 20.4307C28.4227 20.4401 28.4321 20.4401 28.4321 20.4495C28.4321 20.487 28.4414 20.5152 28.4602 20.5434C28.3757 20.6373 28.3194 20.7312 28.31 20.8439C28.31 20.8157 28.4039 20.703 28.4321 20.7782C28.4321 20.7876 28.4321 20.7876 28.4227 20.797C28.3287 20.9003 28.2724 21.0317 28.2254 21.1914C28.1879 21.2572 28.1597 21.3229 28.1409 21.4074C28.0846 21.6047 28.1879 21.7455 28.3287 21.8019C28.3194 21.8207 28.31 21.8394 28.31 21.8582C28.4602 21.7737 28.3381 21.9522 28.4508 21.9522C28.4696 21.9052 28.4978 21.8582 28.5166 21.8113C28.6011 21.8019 28.6762 21.7549 28.742 21.6704C28.7702 21.6234 28.7983 21.5765 28.8265 21.5295C28.8453 21.5201 28.8547 21.492 28.8641 21.4638C28.8641 21.4544 28.8735 21.445 28.8735 21.4356C28.8829 21.4262 28.8923 21.4168 28.9204 21.4168C28.9486 21.4826 28.8265 21.5671 28.911 21.5953C29.005 21.4544 29.0895 21.2947 29.1834 21.1632C29.2585 21.1257 29.3337 21.0881 29.4088 21.0505C29.4746 21.0411 29.5497 21.0224 29.5966 20.9754C29.6154 20.966 29.6248 20.9472 29.6342 20.9378H29.6812V20.8909C29.6812 20.8815 29.6906 20.8815 29.7 20.8721C29.7093 20.8627 29.7094 20.8533 29.7187 20.8439C29.7187 20.8345 29.7281 20.8251 29.7375 20.8063C29.7469 20.7876 29.7563 20.7782 29.7657 20.7594C29.8127 20.6936 29.8596 20.6185 29.8221 20.5715C29.8221 20.5903 29.8033 20.6185 29.7845 20.6373C29.7845 20.6185 29.7845 20.6091 29.7751 20.5903C29.8408 20.487 29.9254 20.3743 29.9629 20.3086C29.9723 20.2992 29.9723 20.2804 29.9817 20.271C30.0568 20.2522 30.1132 20.1583 30.1226 20.0832C30.1883 20.0174 30.2729 19.9893 30.3856 20.0174C30.5546 20.0644 30.7331 19.9799 30.7988 19.8108C30.9397 19.5948 31.0054 19.2661 31.2214 19.1158C31.2496 19.0313 31.2872 18.9468 31.3154 18.8622C31.3623 18.7777 31.4187 18.7026 31.4656 18.618C31.6159 18.3645 31.5126 18.449 31.6253 18.186C31.7098 18.0264 31.7943 17.8667 31.8601 17.6976C32.0573 17.3595 32.1418 17.3407 32.3485 17.0026C32.5457 16.6833 32.6866 16.3358 32.7993 15.9883H32.8087C32.8087 15.9789 32.8087 15.9695 32.8087 15.9508C32.8181 15.932 32.8181 15.9132 32.8274 15.8944C32.865 15.838 32.9026 15.7723 32.9402 15.716C32.9495 15.7066 32.9589 15.6878 32.9589 15.6784C32.9871 15.6126 33.0247 15.5469 33.0529 15.4905H33.0716V15.453C33.081 15.4342 33.0904 15.4248 33.0904 15.406C33.0998 15.3872 33.1092 15.3685 33.1186 15.3403C33.1562 15.3027 33.1937 15.237 33.1843 15.19C33.1937 15.1806 33.1937 15.1618 33.2031 15.1524C33.2313 15.0961 33.2595 15.0397 33.2783 14.9834C33.3816 14.8425 33.5037 14.6641 33.5131 14.495C33.5506 14.4199 33.5882 14.3447 33.6258 14.2696C33.8606 13.8939 34.0202 13.4713 34.2268 13.0956C34.2644 13.0581 34.2832 13.0205 34.302 12.9735C34.3114 12.9735 34.3114 12.9735 34.3208 12.9735C34.5837 12.4758 34.781 11.9122 35.1754 11.5647C35.2036 11.283 34.8185 11.236 34.6495 11.0576Z" fill="currentColor"/>
<path d="M32.6576 20.855C32.5073 20.7611 32.5637 21.2401 32.3289 21.0898C32.6013 20.639 32.8361 20.2257 33.0521 19.7374C32.9582 19.7655 32.8736 19.9722 32.7797 19.9158C32.8079 19.8595 32.8361 19.7655 32.93 19.7655C32.9582 19.2302 33.409 18.9578 33.4653 18.5728C33.3714 18.6291 33.3714 18.7794 33.2211 18.8076C33.1366 18.601 33.4653 18.4789 33.315 18.2347C33.5592 18.1783 33.6156 17.906 33.7377 17.7557C33.7659 17.6618 33.7377 17.5772 33.7095 17.5209C33.8034 17.4927 33.8034 17.3706 33.8034 17.2485C33.8973 17.2203 33.8973 17.1546 33.9537 17.1264C33.9819 16.732 34.2261 16.5911 34.2824 16.2624C34.7614 15.6895 34.968 14.8536 35.4188 14.2807C35.5691 13.8956 36.0293 12.9658 36.2735 12.6653C36.2735 12.6089 36.2735 12.5432 36.2735 12.4868C36.7243 11.9797 36.9027 11.172 37.3535 10.693C37.4475 10.214 37.7762 9.79138 37.9171 9.3124C38.2458 9.16213 38.3115 8.77706 38.4618 8.47652C38.2176 8.5047 37.8889 8.53287 37.7386 8.47652C37.316 8.71132 37.0154 8.5047 36.6304 8.65497C36.6304 8.62679 36.6304 8.59862 36.6022 8.59862C36.574 8.62679 36.5458 8.65497 36.5083 8.69253C36.0575 8.74889 35.7006 8.66436 35.3437 8.8428C34.6299 8.69253 33.8128 9.02125 33.0051 8.95551C32.9769 8.8428 32.883 8.72071 32.7327 8.65497C32.6764 8.26051 32.5543 7.79092 32.6107 7.36828C32.6107 7.31193 32.5543 7.31193 32.5167 7.24619C32.5167 7.09592 32.5731 7.03957 32.5449 6.8893C32.667 6.68268 32.7797 6.46666 33.0239 6.38214C33.1742 6.38214 33.3244 6.38214 33.4465 6.38214C34.104 6.86112 35.3625 6.58876 36.2265 6.58876C37.964 6.43849 39.6358 6.0816 41.2606 6.13795C41.6175 5.98768 41.7395 6.04403 42.1246 6.0816C42.3312 6.02524 42.6599 5.98768 42.8478 6.05342C43.0262 5.93133 42.9981 6.05342 43.1765 6.02525C43.2047 6.0816 43.1483 6.0816 43.1483 6.14734C43.2422 6.14734 43.2422 5.96889 43.2986 6.11916C43.3549 5.99707 43.3549 5.99707 43.5052 6.02525C43.5334 6.11916 43.477 6.11916 43.4489 6.17551C43.5991 6.09099 43.7494 6.20369 43.8058 6.02525C43.9279 6.02525 43.8058 6.20369 43.8997 6.26004C44.0781 6.23187 44.2847 6.31639 44.4632 6.26004C44.4914 6.31639 44.435 6.43849 44.6135 6.41031C44.6416 6.46666 44.5853 6.61693 44.6698 6.58876C44.7637 6.56058 44.6416 6.46666 44.698 6.41031C44.8483 6.41031 44.8483 6.43849 44.9422 6.38214C45.0643 6.43849 45.177 6.43849 45.2991 6.43849C45.3554 6.56058 45.2427 6.53241 45.2427 6.61693C45.3648 6.58876 45.3648 6.53241 45.4493 6.58876C45.4775 6.50423 45.4212 6.46666 45.4212 6.41031C45.5433 6.43849 45.5433 6.56058 45.5433 6.6545C45.4869 6.71085 45.4869 6.6545 45.3648 6.6545C45.4493 6.77659 45.5151 6.74842 45.6653 6.74842C45.7874 6.72024 45.6935 6.51362 45.8438 6.5418C45.872 6.62632 45.8156 6.66389 45.7874 6.72024C45.8156 6.77659 45.9941 6.72024 45.9941 6.77659C46.088 6.77659 46.0222 6.6545 46.0222 6.59815C46.1443 6.56997 46.0786 6.72024 46.0786 6.77659C46.2289 6.68268 46.4073 6.92686 46.5857 6.89869C46.6139 6.99261 46.4918 6.92686 46.4637 6.99261C46.5576 7.08653 46.5857 6.89869 46.6703 6.99261C46.7924 6.99261 46.6139 6.89869 46.6984 6.89869C46.8205 6.87051 46.8769 6.87051 46.9708 6.89869C46.999 6.99261 46.9708 7.10531 47.0272 7.10531C47.0835 7.10531 46.999 6.95504 47.1211 6.98322C47.0929 7.13349 47.215 7.25558 47.215 7.43402C47.0647 7.49038 46.9802 7.4622 46.8205 7.49038C46.8487 7.61247 46.8487 7.61247 46.8205 7.73456C46.7266 7.73456 46.7924 7.55612 46.6703 7.55612C46.4355 7.97875 45.6466 7.58429 45.3178 7.85666C45.2239 7.88483 45.2615 7.76274 45.1958 7.70639C44.6322 8.00693 43.9654 7.76274 43.3737 7.97875C43.2798 8.00693 43.3174 7.85666 43.2235 7.85666C43.1671 7.85666 43.1295 7.88483 43.1295 7.97875C42.8854 7.97875 42.8008 7.9224 42.6787 8.07267C42.5285 7.9224 42.0495 7.97875 41.8147 8.10085C41.6081 7.9224 41.2793 8.19477 40.9506 8.1572C40.5562 8.75828 40.3214 9.5378 39.9363 10.1671C39.9363 10.2234 39.9363 10.2892 39.9363 10.3455C39.5418 11.0311 39.185 11.7825 38.8562 12.5338C38.7999 12.5056 38.7999 12.5902 38.7341 12.5902C38.7341 12.6465 38.7341 12.6841 38.7341 12.7404C38.5557 12.9752 38.3491 13.2194 38.2833 13.5763C37.8889 14.2337 37.1939 15.4922 36.8652 16.2436C36.621 16.4784 36.5646 16.9292 36.2641 17.1452C36.2641 17.2955 36.2077 17.38 36.1138 17.4739C35.7569 18.4319 35.1558 19.1551 34.7332 20.0849C34.6393 20.113 34.6111 20.2351 34.5266 20.2633C34.5548 20.4136 34.5266 20.5357 34.3763 20.5639C34.32 21.0428 33.8973 21.1931 33.841 21.7003C33.7189 21.7284 33.6907 21.8787 33.5405 21.9069C33.5405 21.9351 33.6907 22.0008 33.5686 22.029C33.5404 22.029 33.5123 22.0008 33.5123 21.9351C33.3902 22.1135 33.362 22.414 33.2117 22.6582C32.9112 22.9306 32.6482 23.1936 32.404 23.5599C32.3477 23.5599 32.2819 23.5599 32.2256 23.5599C32.2538 23.4096 32.2538 23.3532 32.1692 23.2311C32.0753 23.2311 32.0753 23.3532 31.925 23.3251C31.9814 23.1466 32.0753 23.0245 32.019 22.7522C32.1692 22.4516 32.3759 22.1511 32.3759 21.8224C32.5261 21.7003 32.7046 21.3716 32.5543 21.1931C32.5919 21.0616 32.6294 20.9489 32.6576 20.855ZM32.2068 21.5406C32.2068 21.5406 32.2068 21.5406 32.1786 21.5688C32.1505 21.5688 32.1786 21.5124 32.1505 21.4749C32.2068 21.4843 32.2068 21.5124 32.2068 21.5406ZM32.3007 21.334C32.2725 21.334 32.3007 21.2682 32.2725 21.2119C32.3853 21.1837 32.3289 21.3058 32.3007 21.334ZM32.4134 21.3903C32.4134 21.2682 32.4416 21.1837 32.5637 21.1837C32.5355 21.2401 32.5637 21.3903 32.4134 21.3903ZM32.7421 20.0191C32.714 20.2257 32.5355 20.3197 32.4698 20.5545C32.3477 20.4042 32.6482 20.1976 32.6482 20.0191C32.6858 20.0191 32.714 20.0191 32.7421 20.0191ZM32.6576 21.0334C32.6858 21.0898 32.6576 21.1274 32.714 21.1274C32.7421 21.0616 32.714 21.0334 32.6576 21.0334ZM32.8924 19.4462C32.7703 19.4744 32.8642 19.2959 32.8924 19.3899C32.8924 19.418 32.8924 19.418 32.8924 19.4462ZM32.9863 19.2959C32.8642 19.2396 33.0145 18.9954 33.1084 18.9954C33.099 19.1175 33.0427 19.2114 32.9863 19.2959ZM33.0427 19.6622C33.2211 19.6341 33.2211 19.4556 33.2775 19.3053C33.2211 19.3053 33.1836 19.3053 33.1272 19.3335C33.1648 19.5026 33.0709 19.5401 33.0427 19.6622ZM33.315 19.2396C33.315 19.1832 33.3432 19.1457 33.2587 19.1457C33.2587 19.1739 33.2587 19.1739 33.2587 19.202C33.2869 19.2114 33.315 19.2396 33.315 19.2396ZM33.6719 18.2159C33.7001 18.2159 33.7283 18.2159 33.7283 18.2159C33.7283 18.1877 33.7565 18.122 33.7001 18.122C33.7001 18.1501 33.6719 18.1501 33.6438 18.1783C33.6719 18.1877 33.7001 18.1877 33.6719 18.2159ZM43.7776 6.21308C43.7494 6.21308 43.6837 6.24126 43.6555 6.26943C43.7212 6.307 43.8058 6.307 43.7776 6.21308ZM44.0124 6.18491C44.0406 6.10038 44.2472 6.06281 44.3693 6.15673C44.3787 6.24126 44.1345 6.24126 44.0124 6.18491ZM45.2709 6.69207C45.3272 6.69207 45.3272 6.72024 45.3272 6.69207C45.3366 6.66389 45.3085 6.66389 45.2709 6.69207ZM45.6372 6.69207C45.609 6.66389 45.5808 6.59815 45.609 6.56997C45.6935 6.56997 45.6935 6.66389 45.6372 6.69207ZM45.9283 6.87051C45.9565 6.92686 45.9283 6.99261 45.9565 6.99261C45.9659 6.93626 46.0786 6.87051 45.9283 6.87051ZM46.2946 6.89869C46.2946 6.95504 46.3228 6.99261 46.3885 6.99261C46.4073 6.89869 46.3228 6.93626 46.2946 6.89869ZM46.9239 7.2274C46.952 7.25558 47.1023 7.28376 47.1023 7.2274C47.1023 7.19923 46.952 7.17105 46.9239 7.2274ZM47.2807 7.08653C47.2807 7.1147 47.2526 7.1147 47.2244 7.1147C47.2244 7.08653 47.2807 7.08653 47.2807 7.08653Z" fill="currentColor"/>
<path d="M39.5787 18.0261C39.7853 18.0542 39.8511 17.9697 40.0295 17.9697C40.0859 17.9415 40.0577 17.8476 40.0859 17.7913C40.8654 17.6128 41.5792 17.3405 42.1803 16.8896C42.1521 16.8333 42.0582 16.7112 42.2084 16.683C42.2366 16.5609 42.0582 16.7394 42.0582 16.6549C42.1145 16.5609 42.1521 16.4482 42.1803 16.298C44.4907 15.6687 47.0359 15.0958 49.5811 15.4621C49.5811 15.34 49.5811 15.2273 49.7032 15.2836C49.7313 15.1334 49.5811 15.077 49.675 14.9267C49.4965 14.8704 49.5247 14.598 49.4965 14.4478C49.3463 14.4196 49.1678 14.2693 49.196 14.1472C48.9236 14.0251 48.717 14.0533 48.5104 13.903C48.5667 13.9312 48.5949 13.903 48.5949 13.8467C48.3883 13.8185 48.1159 13.7903 47.9093 13.7903C47.8999 13.7715 47.9093 13.7528 47.9187 13.7246C47.8905 13.7152 47.8623 13.7152 47.8342 13.7058C47.8248 13.7246 47.8154 13.7434 47.7872 13.7246C47.2519 13.518 46.5944 13.5461 45.9276 13.6307C44.9133 13.7528 44.1338 13.8373 42.9034 14.0815C42.9034 14.1754 42.7813 14.2317 42.725 14.1754C43.2979 13.5461 43.8896 12.9732 44.4625 12.344C44.4907 12.1374 44.3122 11.9589 44.2183 11.7429C44.4907 11.5363 45.026 11.3484 45.3829 11.2639C46.1061 10.9634 46.9138 10.7286 47.7778 10.5501C47.8717 10.4562 48.0502 10.522 48.1347 10.428C49.0645 10.2496 49.9004 10.1557 50.8302 10.0712C50.8302 10.1275 50.8584 10.1275 50.8865 10.1275C51.065 10.1275 51.281 10.0993 51.4219 10.1839C51.065 10.7286 50.7926 11.1418 50.2291 11.4705C50.2291 11.5926 50.1727 11.6208 50.2009 11.7053C49.9567 11.8274 49.7783 11.9777 49.5998 12.128H49.6938C49.6938 12.0716 49.844 12.0153 49.8722 12.0434C49.844 12.0998 49.7783 12.128 49.6938 12.128C49.5435 12.3346 49.2148 12.3722 49.1302 12.6445C49.459 12.5506 49.6374 12.2876 49.9661 12.2219C49.9098 12.2782 49.8159 12.3064 49.7595 12.3722C49.938 12.4661 49.9661 12.2219 50.06 12.3158C50.0882 12.4943 49.8816 12.4661 49.8534 12.5506C50.1821 12.5224 50.4827 12.1655 50.755 12.2501C51.0556 12.0998 51.5346 11.8932 51.8915 11.8274C52.0981 11.5926 52.4644 11.4987 52.6428 11.2264C52.671 11.1982 52.6992 11.2264 52.7367 11.2264C52.7367 11.0479 53.0091 10.954 53.0091 10.7192C52.9152 9.96784 53.0091 8.80325 52.145 8.47454C52.145 8.41818 52.145 8.39001 52.0887 8.35244C51.8539 8.35244 51.5533 8.14582 51.1307 8.174C51.0744 8.20217 51.1025 8.08008 51.0086 8.08008C50.9523 8.10825 50.9523 8.13643 50.8865 8.174C50.7644 8.08008 50.4357 8.0519 50.3136 8.174C50.2573 8.174 50.2291 8.11765 50.1634 8.08008C46.8386 8.35244 43.8145 9.51703 40.9124 11.0761C40.856 11.3484 40.64 11.4705 40.5837 11.649C40.7339 11.7053 40.7057 11.8838 40.6776 12.0059C40.856 12.3909 40.8278 12.6915 40.9499 13.0484C41.072 13.0765 41.1284 13.1705 41.2223 13.1986C40.4428 14.0345 39.729 14.908 39.034 15.8378C38.9776 16.1665 38.7335 16.5515 38.9776 16.8239C38.9213 17.0305 39.0997 17.3029 39.0716 17.425C39.1655 17.7255 39.4942 17.7631 39.5787 18.0261ZM50.0882 12.3346C50.1164 12.3064 50.1446 12.2782 50.1446 12.2219H50.2385C50.2385 12.3064 50.1821 12.3346 50.0882 12.3346Z" fill="currentColor"/>
<path d="M49.0372 13.0108C49.0278 13.0483 49.009 13.0859 48.9902 13.1235V13.1329C49.2908 12.992 49.5819 12.7948 49.7979 12.6445C49.5444 12.6163 49.272 12.9075 49.0372 13.0108Z" fill="currentColor"/>
<path d="M45.9937 17.1336C45.9373 17.1336 45.9655 17.0773 45.8716 17.0773C45.7777 17.1994 45.6274 17.1055 45.5711 17.1994C43.2607 17.4999 41.1663 18.2794 39.2503 18.9369C39.2222 19.0871 39.3067 18.9369 39.3067 18.9932C39.1564 19.228 38.7056 19.1717 38.8277 19.4722C38.7995 19.4722 38.7995 19.444 38.7338 19.444C38.6399 19.9794 38.8277 20.402 38.9686 20.7589C39.1188 20.7871 39.1188 20.7307 39.2034 20.7025C39.2315 20.7307 39.2315 20.7307 39.2315 20.7589C39.3536 20.7307 39.41 20.7025 39.5321 20.7307C39.9547 20.402 40.6121 20.3175 41.1193 20.1672C41.5983 19.9606 42.143 19.8103 42.7347 19.6882C42.8286 19.66 42.8568 19.5943 42.9413 19.5661C43.8054 19.444 44.4722 19.0871 45.3363 18.965C45.4865 18.9087 45.7213 18.7302 45.9373 18.7584C45.9373 18.7302 45.9373 18.7021 45.9655 18.6739C46.1158 18.9087 46.529 18.5236 46.7169 18.6457C46.745 18.6175 46.6887 18.4955 46.745 18.4955C47.1395 18.3734 47.5246 18.3734 47.9378 18.2888C48.0317 18.2043 47.9378 18.1386 48.0317 18.054C48.0599 18.054 48.0599 18.054 48.0881 18.0259C48.182 18.054 48.1444 18.148 48.2102 18.148C48.3041 18.1198 48.1538 18.0259 48.2383 17.9977C48.3323 17.9695 48.3604 18.1761 48.4168 18.054C48.3886 18.054 48.3886 18.0259 48.3604 17.9977C48.5107 18.0259 48.5671 17.9413 48.661 17.9977C48.7549 17.9695 48.6328 17.8474 48.6892 17.8192C48.7455 17.9038 48.7831 17.9695 48.7831 18.054C48.9052 18.054 48.7831 17.8756 48.9615 17.9601C48.9615 17.9038 48.9615 17.838 49.0179 17.8098C49.0179 18.0822 49.2902 17.838 49.3466 17.8944C49.3748 17.8098 49.2527 17.8944 49.2902 17.7817C49.3466 17.7535 49.525 17.7817 49.4405 17.8944C49.5626 17.9225 49.4687 17.7441 49.5908 17.7817C49.6847 17.8098 49.6847 17.9319 49.7692 17.8944C49.7692 17.7817 49.8631 17.9225 49.9477 17.8662C49.9758 17.838 49.9195 17.6878 50.004 17.7159C50.0604 17.8098 50.0604 17.9225 50.2106 17.8662C50.267 17.7817 50.2106 17.7441 50.3046 17.6596C50.3327 17.6878 50.3046 17.7817 50.3891 17.7535C50.6614 17.5751 50.962 17.7535 51.4128 17.6314C51.5349 17.5375 51.441 17.453 51.5631 17.359V17.5093C51.657 17.359 51.8354 17.359 51.9857 17.359C52.042 17.2088 52.1078 17.1524 52.1923 16.9646C50.483 16.5889 47.7218 16.8894 45.9937 17.1336ZM47.8721 18.2043C47.8439 18.2043 47.8439 18.1761 47.8439 18.1104C47.9002 18.1104 47.9002 18.1386 47.9002 18.1667C47.8721 18.1761 47.8721 18.2043 47.8721 18.2043ZM51.92 17.0397C51.9481 17.0397 51.9481 17.0397 51.9763 17.0397C51.9763 17.0679 51.9763 17.0961 51.9763 17.0961C51.9481 17.0961 51.9481 17.0961 51.92 17.0961C51.92 17.0961 51.92 17.0679 51.92 17.0397Z" fill="currentColor"/>
<path d="M51.6671 11.9208C51.7237 11.9208 51.6671 11.8925 51.6671 11.9208C51.5444 11.8925 51.6671 12.0152 51.6671 11.9208Z" fill="currentColor"/>
<path d="M52.8401 8.17496C52.8686 8.17496 52.897 8.17496 52.897 8.14648C52.8781 8.17496 52.8401 8.14648 52.8401 8.17496Z" fill="currentColor"/>
<path d="M66.5151 7.48887C66.4588 7.66732 66.3085 7.78941 66.1582 7.84576C66.1582 7.87394 66.2146 7.87394 66.2803 7.87394C66.0737 8.08056 65.7732 8.23083 65.529 8.44684C65.5008 8.54076 65.6792 8.62529 65.5853 8.68164C65.5853 8.83191 65.4632 8.65346 65.4351 8.65346C65.3787 8.86008 65.1063 8.92583 65.1627 9.13245C64.8058 9.31089 64.5992 9.63961 64.2611 9.81805C64.2611 9.87441 64.3832 9.84623 64.4395 9.84623C64.3832 9.9965 64.3456 10.2031 64.1953 10.0904C64.139 10.1468 64.1953 10.2031 64.1953 10.297C63.9887 10.5318 63.7445 10.7478 63.6318 11.039C63.3595 11.3114 62.9744 11.4898 62.8241 11.8467C62.6457 11.8467 62.6175 12.1191 62.4391 12.0251C62.1103 12.4196 61.838 12.8328 61.359 13.0395C61.1805 13.2837 60.9364 13.4903 60.6358 13.603C60.6076 13.9035 60.3635 13.9974 60.1568 14.082C60.0347 14.4107 59.6778 14.467 59.5276 14.7676C59.4994 14.7957 59.4431 14.7957 59.3773 14.7957C59.1049 15.1902 58.7199 15.425 58.4193 15.7537C58.6541 16.862 58.7481 18.1205 58.147 18.9563C57.9967 18.9282 57.9967 19.0127 57.9122 19.0127C57.4332 18.4961 57.1608 17.8763 56.926 17.1813C55.9399 18.0171 54.8598 19.0127 53.7516 19.8486C53.7234 19.8767 53.7234 19.9331 53.6952 19.9613C53.545 20.0834 53.2726 20.1679 53.0942 20.29C53.0002 20.3463 52.9439 20.4684 52.8875 20.4966C52.6809 20.6469 52.2301 20.4966 51.9577 20.4966C51.7511 20.4403 51.6008 20.3182 51.3567 20.29C51.3285 20.0834 51.0843 20.1397 50.9998 19.9894C50.9716 19.8673 50.8777 19.811 50.9058 19.6607C51.2346 19.1536 51.892 18.9376 52.2207 18.4022C53.6577 17.3785 54.7941 16.0636 56.0808 14.8709C55.4797 13.0489 55.1228 11.1893 54.1085 9.80866C53.6577 9.78049 53.5637 9.4236 53.5074 9.15123C53.6858 8.01482 55.0383 8.34353 55.9962 8.55015C56.231 8.90704 56.6537 9.15123 56.7194 9.63022C57.02 9.95893 57.1139 10.4661 57.3205 10.8887C57.3487 11.3677 57.7056 11.6683 57.7056 12.2412C57.8558 12.4478 57.9497 12.8704 57.9779 13.1709C59.2646 12.1285 60.4668 10.9826 61.8661 10.0622C61.9225 10.0341 61.9225 9.96832 61.9882 9.91197C62.0164 9.91197 62.0822 9.91197 62.1103 9.91197C62.1103 9.85562 62.1949 9.85562 62.1667 9.7617C62.4672 9.67718 62.6739 9.46116 62.918 9.28272C63.3125 9.13245 63.6412 8.92583 63.9418 8.68164C64.3926 8.56894 64.6931 8.259 65.0782 8.05238C65.6792 7.87394 66.1301 7.39495 66.6936 7.31043C66.7217 7.42313 66.5715 7.36678 66.5715 7.4607C66.5997 7.51705 66.5997 7.61097 66.6936 7.61097C66.6654 7.66732 66.5996 7.73306 66.4869 7.73306C66.609 7.66732 66.5151 7.61097 66.5151 7.48887ZM65.7732 8.56894C65.745 8.41867 65.8671 8.41867 65.9798 8.39049C65.9798 8.54076 65.8577 8.50319 65.7732 8.56894ZM66.1301 8.29657C66.1301 8.24022 66.224 8.24022 66.2522 8.2684C66.2428 8.32475 66.1582 8.32475 66.1301 8.29657ZM66.2803 7.87394C66.3085 7.78941 66.4024 7.78941 66.4869 7.76124C66.4306 7.81759 66.393 7.91151 66.2803 7.87394ZM66.9659 7.31043C66.9659 7.3386 66.9378 7.3386 66.9096 7.3386C66.9096 7.31043 66.9378 7.31043 66.9659 7.31043ZM66.9378 7.24468C66.8814 7.21651 66.9378 7.18833 66.9378 7.16016C66.9941 7.18833 66.9378 7.21651 66.9378 7.24468ZM67.0223 7.51705C66.9284 7.39495 67.2007 7.36678 67.2946 7.28225C67.2665 7.42313 67.088 7.39495 67.0223 7.51705Z" fill="currentColor"/>
<path d="M23.3316 3.78858C23.3034 3.71344 23.3128 3.59135 23.3973 3.48804C23.3503 3.46926 23.3034 3.45047 23.2564 3.43169C23.2095 3.43169 23.2095 3.4223 23.2189 3.4129C23.0874 3.35655 22.9747 3.29081 22.8807 3.21568C22.7587 3.21568 22.6366 3.20628 22.5145 3.1875C22.3266 3.21568 22.1388 3.25324 21.9697 3.30959C21.6035 3.4223 21.2466 3.59135 20.8991 3.7604C20.8897 3.79797 20.9085 3.82615 20.946 3.86371C20.8145 3.93885 20.7112 4.08912 20.8239 4.15486C20.7864 4.16425 20.7488 4.17365 20.7112 4.18304C20.73 4.2206 20.8615 4.23939 20.7112 4.27696C20.7206 4.29574 20.73 4.33331 20.7394 4.3427C20.7112 4.37087 20.6361 4.38966 20.561 4.40844C20.7112 4.55871 20.2135 4.76533 20.4952 4.84047C20.4389 4.87804 20.4483 4.92499 20.4295 4.95317C20.4295 4.99074 20.4295 5.0377 20.4107 5.07526C20.4295 5.08466 20.4295 5.10344 20.4576 5.10344C20.4389 5.12222 20.4201 5.14101 20.4107 5.15979C20.3449 5.20675 20.3356 5.2631 20.3262 5.31945C20.3262 5.32884 20.3262 5.33824 20.3356 5.34763C20.3356 5.33824 20.3356 5.32884 20.3262 5.31945C20.3356 5.36641 20.3543 5.41337 20.3543 5.46033C20.3543 5.48851 20.3543 5.52607 20.3543 5.55425C20.3543 5.56364 20.3543 5.57303 20.3449 5.57303C20.3543 5.59182 20.3543 5.62938 20.4483 5.59182C20.5516 5.56364 20.4764 5.44155 20.5703 5.44155H20.5797C20.5703 5.46033 20.5516 5.47911 20.5422 5.50729C20.5328 5.55425 20.5422 5.58243 20.5422 5.61999C20.4858 5.66695 20.4389 5.71391 20.4295 5.75148C20.3074 5.75148 20.1195 5.90175 20.2698 5.9581C20.4295 5.92992 20.2416 5.89236 20.3543 5.85479C20.3825 5.8454 20.4201 5.85479 20.4576 5.86418C20.4576 5.87357 20.4483 5.89236 20.4483 5.90175C20.4107 5.92992 20.3731 5.94871 20.3168 5.97688C20.3262 6.11776 20.251 6.26803 20.1759 6.42769C20.1759 6.43709 20.1759 6.45587 20.1759 6.46526C20.1759 6.45587 20.1759 6.43709 20.1759 6.42769C20.1759 6.46526 20.1759 6.51222 20.1571 6.54979C20.1571 6.54979 20.1571 6.54979 20.1571 6.55918C20.1571 6.55918 20.1571 6.55918 20.1571 6.56857C20.1571 6.58735 20.1571 6.59675 20.1571 6.61553C20.1571 6.6531 20.1571 6.70006 20.1571 6.73762C20.1571 6.78458 20.1571 6.83154 20.1477 6.86911C20.1477 6.88789 20.1383 6.90668 20.1289 6.92546C20.1383 6.92546 20.1477 6.92546 20.1571 6.92546C20.0162 7.08512 20.0068 7.24478 20.0068 7.44201C20.1759 7.35749 20.1853 7.27296 20.1383 7.16965C20.3731 7.1133 20.2416 7.07573 20.2886 7.02877C20.3074 7.03816 20.3356 7.04756 20.3637 7.04756C20.3074 7.19783 20.2322 7.3481 20.1947 7.49837C20.3074 7.47019 20.2322 7.38566 20.3919 7.38566C20.4952 7.43262 20.2886 7.53593 20.3168 7.60168C20.4764 7.49837 20.3731 7.63924 20.5234 7.60168C20.5797 7.45141 20.6455 7.31053 20.7958 7.16965C20.8145 7.20722 20.777 7.23539 20.7864 7.25418C20.946 7.226 20.8333 7.16026 20.9366 7.13208C20.993 7.16026 20.8615 7.25418 20.9836 7.23539C21.0869 7.07573 21.1433 6.91607 21.2747 6.77519C21.2747 6.77519 21.2747 6.77519 21.2841 6.7658C21.3123 6.73762 21.3405 6.70945 21.378 6.68127C21.3687 6.68127 21.3499 6.68127 21.3405 6.68127C21.3499 6.6531 21.3593 6.62492 21.378 6.59675C21.3968 6.59675 21.4062 6.59675 21.425 6.58735C21.4062 6.57796 21.4062 6.56857 21.3874 6.55918C21.3968 6.54979 21.3968 6.531 21.4062 6.51222C21.4156 6.49344 21.425 6.48404 21.4344 6.46526C21.4344 6.45587 21.4344 6.45587 21.4438 6.45587C21.4532 6.45587 21.472 6.44648 21.4907 6.44648C21.5001 6.40891 21.5283 6.36195 21.5377 6.33377C21.5565 6.31499 21.5753 6.28681 21.5941 6.25864C21.5941 6.25864 21.5941 6.25864 21.5941 6.24925C21.6035 6.24925 21.6035 6.24925 21.6128 6.24925C21.6128 6.23986 21.6128 6.23986 21.6035 6.23046C21.6222 6.20229 21.641 6.16472 21.6504 6.12715C21.6504 6.11776 21.6598 6.11776 21.6598 6.10837C21.6692 6.09898 21.6786 6.08019 21.688 6.0708C21.7068 6.06141 21.7255 6.05202 21.7631 6.05202C21.7725 6.02384 21.7725 5.99567 21.7631 5.97688C21.7725 5.96749 21.7819 5.9581 21.7819 5.94871C21.8007 5.92053 21.8101 5.89236 21.8195 5.86418C21.8289 5.85479 21.8289 5.83601 21.8382 5.82661L21.8476 5.81722C21.8664 5.81722 21.8758 5.81722 21.904 5.81722C21.8946 5.79844 21.8946 5.77965 21.8852 5.76087C21.904 5.7327 21.9228 5.70452 21.9416 5.68574C21.9416 5.68574 21.951 5.67634 21.951 5.66695C22.1764 5.58243 22.2045 5.44155 22.2703 5.32885C22.2609 5.32885 22.2609 5.32885 22.2515 5.32885C22.2609 5.31945 22.2703 5.30067 22.2797 5.29128C22.2985 5.2631 22.3172 5.23493 22.3266 5.20675C22.3266 5.19736 22.3266 5.19736 22.3266 5.18797C22.3736 5.1504 22.4112 5.10344 22.4018 5.06587C22.4205 5.0377 22.4393 5.00952 22.4487 4.97195C22.4487 4.98135 22.4487 4.98135 22.4487 4.99074C22.4487 4.98135 22.4581 4.98135 22.4581 4.97195C22.4675 4.97195 22.4769 4.96256 22.4863 4.96256C22.4769 4.95317 22.4769 4.95317 22.4769 4.94378C22.4769 4.94378 22.4769 4.93439 22.4863 4.93439C22.5145 4.89682 22.5426 4.84986 22.5802 4.81229C22.599 4.79351 22.6084 4.77472 22.6178 4.74655C22.6178 4.74655 22.6178 4.74655 22.6272 4.74655C22.6459 4.73716 22.6647 4.73716 22.6741 4.72777C22.6647 4.72777 22.6459 4.73716 22.6366 4.73716C22.6647 4.72777 22.6835 4.71837 22.7023 4.70898C22.7117 4.71837 22.7211 4.73716 22.7399 4.74655C22.7587 4.69959 22.8714 4.67141 22.9371 4.63385C23.3597 4.1079 23.1249 4.07034 23.3316 3.78858Z" fill="currentColor"/>
<path d="M40.0954 0.501453C40.0484 0.341792 39.9263 0.210305 39.7854 0.135171C39.6821 0.0882112 39.5788 0.0600356 39.4661 0.0506438C39.4473 0.0412519 39.4192 0.0318601 39.4004 0.0224682C39.2313 0.00368447 39.0623 -0.00570739 38.9026 0.00368447C38.7899 0.0130763 38.6772 0.0318601 38.5645 0.0600356C38.3485 -0.033883 38.0949 0.0412519 37.9446 0.229089C37.9258 0.238481 37.9071 0.238481 37.8977 0.247873C37.8883 0.266657 37.8883 0.294832 37.8883 0.313616C37.8507 0.369967 37.8225 0.416926 37.7944 0.473278C37.7568 0.510845 37.7286 0.557804 37.7192 0.604764C37.7004 0.642331 37.6817 0.679899 37.6629 0.717466C37.6535 0.717466 37.6441 0.717466 37.6441 0.717466C37.6441 0.726858 37.6535 0.73625 37.6535 0.73625C37.6159 0.811385 37.569 0.88652 37.5314 0.961654C37.5126 0.961654 37.4938 0.961654 37.4656 0.971046C37.4844 1.00861 37.475 1.03679 37.475 1.06497C37.4563 1.10253 37.4375 1.1401 37.4093 1.17767C37.3342 1.27159 37.2215 1.34672 37.2778 1.44064C37.2496 1.49699 37.2215 1.55334 37.1933 1.61908C37.1088 1.60969 37.0712 1.69422 37.0806 1.77875C37.1088 1.76935 37.1275 1.75996 37.1369 1.75996C37.09 1.88206 37.0524 2.00415 37.0242 2.13564C37.0054 2.1732 36.9679 2.21077 36.9209 2.22956C36.8646 2.35165 36.8364 2.42678 36.8082 2.5207C36.7613 2.59584 36.7143 2.67097 36.6861 2.74611C36.6204 2.88699 36.6016 3.02786 36.611 3.17813C36.6204 3.26266 36.6204 3.35658 36.6579 3.43171C36.6673 3.44111 36.6767 3.4505 36.6767 3.45989C36.6204 3.55381 36.611 3.68529 36.6486 3.76043C37.043 3.12178 37.0806 3.58198 36.5734 4.03279C36.4231 4.19246 36.3762 4.38968 36.3386 4.63387C36.3574 4.62448 36.3668 4.62448 36.3762 4.61509C36.3762 4.65266 36.3856 4.69022 36.395 4.72779C36.4232 4.82171 36.4983 4.87806 36.5828 4.89684C36.5828 4.90624 36.5734 4.90624 36.5734 4.91563C36.6016 4.89684 36.611 4.89684 36.6298 4.89684C36.6392 4.89684 36.6486 4.89684 36.6579 4.89684C36.6955 4.90624 36.6579 4.98137 36.7613 4.98137C36.8458 4.80293 36.9303 4.65266 37.09 4.52117C37.0994 4.56813 37.0618 4.59631 37.0712 4.62448C37.2121 4.64326 37.1275 4.52117 37.2309 4.52117C37.2684 4.56813 37.1463 4.65266 37.2496 4.66205C37.3717 4.49299 37.4469 4.32394 37.5877 4.18306C37.5971 4.18306 37.5971 4.18306 37.6065 4.17367C37.738 4.10793 37.8131 3.98583 37.8601 3.85435C37.8695 3.81678 37.8789 3.78861 37.8883 3.75104C37.8977 3.73225 37.9071 3.71347 37.9071 3.69469C37.9165 3.6759 37.9258 3.64773 37.9352 3.62894C37.954 3.62894 37.9634 3.62894 37.9916 3.62894C38.001 3.58198 37.9916 3.57259 37.9728 3.55381C37.9916 3.51624 38.0104 3.48807 38.0386 3.45989C38.0667 3.44111 38.0855 3.41293 38.1794 3.42232C38.1982 3.37536 38.1982 3.3378 38.1794 3.30023C38.217 3.26266 38.2546 3.22509 38.2827 3.17813C38.2921 3.16874 38.2921 3.15935 38.3015 3.14057C38.3203 3.14057 38.3297 3.14996 38.3579 3.16874C38.3485 3.14057 38.3579 3.12178 38.3485 3.103C38.3579 3.103 38.3673 3.103 38.3673 3.09361C38.4142 3.06543 38.4424 3.02786 38.48 2.9903C38.649 2.93395 38.696 2.78368 38.7711 2.68037C38.7523 2.68037 38.7523 2.67097 38.7429 2.67097C38.7711 2.63341 38.7899 2.59584 38.7805 2.54888C38.7899 2.53949 38.7899 2.53949 38.7805 2.54888C38.7899 2.53949 38.7993 2.5301 38.8087 2.5207C38.8181 2.51131 38.8181 2.50192 38.8275 2.49253C38.8275 2.50192 38.8275 2.51131 38.8275 2.5301C38.912 2.50192 38.9777 2.408 38.9308 2.32347L38.9402 2.31408C38.9496 2.30469 38.9496 2.28591 38.959 2.27652C38.9871 2.27652 39.0153 2.27652 39.0341 2.27652C39.0059 2.23895 39.0059 2.20138 39.0059 2.1826C39.0153 2.1732 39.0153 2.15442 39.0247 2.14503C39.0341 2.13564 39.0435 2.12625 39.0435 2.11685C39.0529 2.10746 39.0717 2.08868 39.081 2.07929C39.0998 2.07929 39.1186 2.09807 39.1374 2.09807C39.1844 2.09807 39.2219 2.08868 39.2595 2.06989C39.2595 2.07929 39.2689 2.09807 39.2783 2.10746C39.3065 2.0605 39.4098 2.05111 39.4755 2.02293C39.5319 1.62848 39.7385 1.32794 39.9827 1.03679C39.9827 1.0274 39.9827 1.01801 39.9827 1.00861C40.0954 0.867736 40.1423 0.679899 40.0954 0.501453Z" fill="currentColor"/>
</svg>
