<svg width="90" height="32" viewBox="0 0 90 32" fill="none" xmlns="http://www.w3.org/2000/svg">
<path d="M1.14258 24.9508C1.18055 24.9508 1.21852 24.9508 1.21852 24.9128C1.19321 24.9128 1.14258 24.9128 1.14258 24.9508Z" fill="currentColor"/>
<path d="M14.166 10.9752C14.204 10.9752 14.242 10.9752 14.242 10.9373C14.204 10.9373 14.166 10.9373 14.166 10.9752Z" fill="currentColor"/>
<path d="M20.9907 14.8569C20.6776 13.8926 20.1141 12.8157 19.4004 12.1019C19.1249 11.864 18.7993 11.7889 18.5238 11.576C18.3234 11.5009 18.2859 11.3381 18.1231 11.2629C17.5971 11.1001 17.0837 10.8622 16.5327 10.7871C16.0068 10.7495 15.4934 10.8622 14.9799 10.7495C14.7796 10.8747 14.3789 10.8246 14.1409 10.7871C14.0157 10.9123 14.0157 10.9123 13.8654 10.8246C13.7402 10.9499 13.9406 10.9499 13.9907 11.025C12.6257 11.2254 11.6365 11.8264 10.3216 12.3023C10.3216 12.415 10.3592 12.3774 10.3216 12.4526C10.1588 12.4901 10.0461 12.5277 9.92089 12.4526C9.88332 12.8157 9.40747 12.7281 9.35738 13.0536C9.04432 13.0912 8.7563 13.254 8.60603 13.5796C8.56847 13.5796 8.56847 13.5044 8.48081 13.5044C8.40567 13.6171 8.11766 13.6672 8.24288 13.8676C8.08009 13.8676 8.08009 14.068 7.87973 14.0304C7.87973 13.9928 7.9173 13.9928 7.9173 13.9052C7.79207 13.9052 7.71694 14.068 7.79207 14.1055C7.79207 14.068 7.86721 14.068 7.86721 14.1055C7.79207 14.1431 7.74198 14.2307 7.66685 14.2307C7.54163 14.356 7.46649 14.5062 7.3037 14.5062C7.02821 14.8193 6.66506 15.2576 6.33947 15.3452C6.66506 15.0697 6.94055 14.7442 7.3037 14.5062C7.3037 14.381 7.46649 14.4311 7.46649 14.2683C6.86542 14.7442 6.26434 15.2325 5.86362 15.8211C6.06398 15.7835 6.13911 15.4204 6.33947 15.4579C6.17668 15.6583 6.02641 15.8211 5.82605 15.9338C5.82605 16.0089 5.82605 16.0966 5.75092 16.059C5.71335 16.059 5.71335 16.0214 5.75092 15.9839C5.58813 15.9839 5.6257 16.1467 5.6257 16.2594C5.55056 16.2969 5.55056 16.2218 5.50047 16.2218C5.50047 16.6601 5.06219 17.0232 4.98705 17.4991C5.18741 17.4991 5.06219 17.186 5.26255 17.186C4.78669 18.0626 4.54877 19.2648 5.4629 19.7782C5.38777 19.9034 5.57561 20.0161 5.66326 20.0537C6.10155 20.0161 6.41461 19.8157 6.53983 19.415C6.41461 19.3399 6.41461 19.1395 6.26434 19.0894C6.33947 19.0143 6.26434 19.0143 6.26434 18.8891C6.70262 17.9249 7.21604 17.0483 7.94234 16.3345C8.69369 15.5706 9.65792 14.932 10.7348 14.4186C10.9728 14.3059 11.2483 14.1055 11.5363 13.9803C12.3377 13.6672 13.2894 13.3417 14.2912 13.1789C14.2912 13.1037 14.454 13.1037 14.5291 13.0161C14.6919 13.1413 15.1678 13.0161 15.5685 13.0161C16.5327 13.0161 17.4844 13.0161 18.3986 13.4919C18.6365 14.7316 17.9978 16.2093 17.3216 17.0483C15.9316 19.2773 13.8905 20.8426 11.8118 22.3954C10.5345 23.1968 9.2572 24.1109 7.90478 24.6369C7.9173 24.5868 6.95307 25.0626 6.95307 25.0752C5.67579 25.8766 3.79742 26.39 2.5577 26.7156C2.39491 26.6405 2.23212 26.7532 2.11942 26.678C2.04428 26.7156 2.11942 26.8784 2.00672 26.8408C1.93158 26.8408 1.88149 26.8032 1.88149 26.7657C2.15699 26.2022 2.20708 25.6888 2.52014 25.0877C2.52014 25.2379 2.59527 25.1252 2.64536 25.0877C2.64536 24.9249 2.57023 25.0877 2.48257 25.0501C2.52014 24.9249 2.64536 24.8873 2.64536 24.7371C2.48257 24.7746 2.48257 25.1378 2.36987 25.0501C2.445 24.7371 2.84572 24.4866 2.64536 24.0859C2.77058 24.1235 2.68293 23.9732 2.77058 23.9231C2.73302 23.9982 2.80815 23.9982 2.84572 23.9982C2.88329 23.9607 2.84572 23.8354 2.80815 23.7603C2.53266 23.9607 2.445 24.2862 2.24464 24.5242C2.20708 24.3238 2.36987 24.3614 2.31978 24.161C2.20708 24.0358 2.15699 24.3614 2.08185 24.2362C2.15699 24.1109 2.28221 24.0358 2.28221 23.7979C2.00672 23.9982 1.95663 24.5617 1.68113 24.5617C1.75627 24.7245 1.68113 24.8372 1.51834 24.8372C1.48078 24.7621 1.68113 24.6369 1.55591 24.5617C1.51834 24.6369 1.51834 24.7245 1.43069 24.7621C1.35555 24.5617 1.50582 24.5617 1.50582 24.3989C1.30546 24.7245 0.904745 24.8748 0.992402 25.2004C0.917267 25.2755 0.867177 25.1628 0.792043 25.2379C0.792043 25.7138 0.46646 25.8015 0.391326 26.1145C0.353758 26.1145 0.353758 26.0394 0.278624 26.0394C0.278624 26.2022 0.203489 26.2397 0.241057 26.3524C-0.159661 26.4777 0.0782651 26.8283 0.00313061 27.1163C0.203489 27.2791 0.441415 27.4294 0.641774 27.4795C0.641774 27.6047 0.478982 27.517 0.51655 27.6423C0.641774 27.7174 0.641774 27.8426 0.792043 27.8802C1.26789 28.7192 2.26969 29.1575 3.38418 29.1199C3.62211 28.9571 4.18562 29.1199 4.38598 28.9195C5.26255 28.882 5.97632 28.644 6.74019 28.2809C7.6919 27.9678 8.49333 27.7174 9.2572 27.1288C9.62035 27.1288 9.97097 26.8158 10.3341 26.5653C11.8118 25.9642 12.776 25.0877 14.166 24.3739C14.7671 23.8104 15.4057 23.3345 16.1195 22.8587C17.4343 21.619 18.7116 20.3417 19.7886 18.864V18.6637C20.59 17.6494 21.1034 16.1592 20.9907 14.8569ZM2.26969 25.2254C2.26969 25.0752 2.41996 25.2254 2.26969 25.2254C2.26969 25.3006 2.30726 25.4258 2.19455 25.3882C2.18203 25.3131 2.18203 25.263 2.26969 25.2254ZM0.1534 26.9911C0.228534 26.9911 0.278624 27.0287 0.278624 27.1163C0.228534 27.0662 0.115832 27.1038 0.1534 26.9911ZM1.39312 25.263C1.28042 25.2254 1.43069 25.1127 1.39312 24.9875C1.54339 24.9875 1.43069 25.263 1.39312 25.263Z" fill="currentColor"/>
<path d="M8.61941 13.4165C8.61941 13.4545 8.58144 13.4545 8.54347 13.4545C8.53081 13.4165 8.56878 13.4165 8.61941 13.4165Z" fill="currentColor"/>
<path d="M4.4612 31.7244C4.48624 31.6994 4.56138 31.5491 4.56138 31.5241C4.49876 31.5491 4.43615 31.5742 4.37354 31.5992C4.69912 30.0089 13.9782 13.5419 14.5417 12.1394C15.1804 11.2252 15.5811 10.0606 16.2949 9.18408C16.057 8.45778 15.4559 8.06958 15.0176 7.54364C14.7797 7.50607 14.5793 7.744 14.4165 7.58121C14.3789 7.65634 14.3414 7.744 14.2162 7.70643C13.0641 9.78515 3.42184 27.2038 2.38248 29.3577C2.34491 29.796 2.01933 30.3595 2.30734 30.7602C2.38248 30.8353 2.42004 30.7226 2.5077 30.7978C2.6204 31.1985 2.87085 31.9373 3.27157 31.9749C3.33418 31.9874 3.40931 31.9999 3.4594 31.9999C3.75994 31.9749 4.02291 31.9498 4.28588 31.8622C4.34849 31.8371 4.39858 31.787 4.4612 31.7244Z" fill="currentColor"/>
<path d="M27.1768 12.5401C27.1768 12.4399 27.1643 12.3272 27.0891 12.2521C27.014 12.177 26.9263 12.177 26.8387 12.177C26.6634 12.177 26.5006 12.1644 26.3378 12.1269C26.175 12.0893 26.1875 11.8639 26.0498 11.7888C25.8744 11.6886 25.7242 11.6135 25.5238 11.7262C25.5238 11.7262 25.5238 11.7262 25.5113 11.7262C25.4988 11.7136 25.4988 11.7136 25.4988 11.7136C25.4362 11.6636 25.3861 11.6135 25.3235 11.5759C25.1982 11.5008 25.0605 11.4882 24.9227 11.5133C24.5972 11.4757 24.4469 11.4757 24.1589 11.5133C23.5202 12.6278 22.8691 14.2682 22.2805 15.5831C21.9174 15.9462 21.8798 16.6224 21.5292 16.9856C21.5292 17.0607 21.5667 17.0607 21.5667 17.1484C20.8905 18.1001 20.6526 19.3022 19.9764 20.2665C20.0515 20.5795 19.6132 20.7799 19.7385 21.143C19.5757 21.2182 19.4254 21.4561 19.5005 21.6564H19.3878C19.3878 21.7316 19.5005 21.8568 19.3503 21.8568V22.0196C19.3127 22.0572 19.225 22.0572 19.1499 22.0572C19.225 22.4579 18.6741 22.5831 18.912 22.8962C18.8368 22.9337 18.8368 23.059 18.7868 23.0965C18.6866 23.0214 18.6114 23.1466 18.5989 23.2969C18.5864 23.3344 18.5864 23.372 18.5989 23.4096C18.6114 23.4471 18.624 23.4847 18.6365 23.5348C18.6365 23.5473 18.6365 23.5473 18.6365 23.5598C18.5363 23.7101 18.5363 23.9731 18.3485 24.0733C18.2358 24.3488 18.1857 24.474 18.1231 24.762C18.0605 24.8371 18.0605 24.9749 18.1231 25.05C18.1231 25.0625 18.1356 25.0876 18.1356 25.1001C18.1481 25.1502 18.1606 25.2003 18.1857 25.2504C18.1982 25.2754 18.2107 25.2879 18.2232 25.313C18.1105 25.7262 17.8476 26.1144 17.6723 26.5026C17.6848 26.5151 17.6848 26.5277 17.6973 26.5277C17.6973 26.5402 17.6848 26.5402 17.6848 26.5527C17.5721 26.8282 17.4594 27.1037 17.4469 27.4168C17.4469 27.4794 17.4469 27.5295 17.4343 27.5795C17.3968 27.6922 17.3717 27.8175 17.3467 27.9552C17.3592 27.9552 17.3592 27.9427 17.3717 27.9427C17.3717 27.9677 17.3717 27.9928 17.3717 28.0178C17.3842 28.0554 17.3968 28.093 17.4218 28.1305C17.4343 28.1431 17.4343 28.1556 17.4469 28.1556C17.4469 28.2432 17.5345 28.3184 17.6096 28.3434C17.5971 28.3685 17.5846 28.3935 17.5846 28.4311C17.785 28.3184 17.6222 28.5563 17.785 28.5563C17.9102 28.2808 18.0229 28.0303 18.2232 27.83C18.2232 27.9051 18.1857 27.9552 18.1857 27.9928C18.3485 28.0304 18.2608 27.83 18.386 27.83C18.4236 27.9051 18.2608 28.0304 18.386 28.0679C18.5864 27.7549 18.6991 27.4042 18.9746 27.2039C18.9871 27.1913 19.0122 27.1913 19.0247 27.1788C19.1374 27.0786 19.1374 26.9409 19.1875 26.8032C19.225 26.6905 19.3002 26.5778 19.3753 26.4776H19.3878C19.3878 26.465 19.3878 26.465 19.3878 26.4525C19.4504 26.3523 19.5131 26.2522 19.5757 26.152C19.5882 26.152 19.6007 26.152 19.6258 26.152C19.6383 26.1019 19.6508 26.0643 19.6508 26.0142C19.7009 25.9141 19.751 25.8014 19.8011 25.7012C19.8136 25.7012 19.8386 25.7137 19.8637 25.7513C19.8637 25.7012 19.8637 25.6511 19.8637 25.6135C19.8887 25.576 19.9263 25.5384 19.9639 25.5008C20.2268 25.4633 20.3145 25.1752 20.4272 24.9874C20.4147 24.9874 20.4021 24.9749 20.4021 24.9749C20.4522 24.8872 20.5023 24.8121 20.5649 24.737C20.6025 24.6994 20.615 24.6618 20.6276 24.6243C20.6526 24.5867 20.6651 24.5491 20.6651 24.5116C20.6902 24.4865 20.7027 24.4615 20.7027 24.4364C20.7027 24.4239 20.7152 24.4114 20.7152 24.3989V24.3863C20.7277 24.3738 20.7277 24.3613 20.7403 24.3488H20.7778C20.7778 24.3362 20.7653 24.3237 20.7653 24.3112C20.7653 24.2987 20.7778 24.2987 20.7778 24.2987C20.7903 24.2861 20.8029 24.2736 20.8029 24.2611C20.8279 24.2361 20.853 24.211 20.878 24.186C20.9406 24.1234 21.0157 24.0607 21.0784 23.9981C21.0784 24.0232 21.0784 24.0482 21.0909 24.0733C21.1284 23.9981 21.2537 23.9981 21.3288 23.948C21.3664 23.7727 21.4165 23.6099 21.4666 23.4471C21.4791 23.4221 21.4916 23.3971 21.4916 23.372C21.6293 22.9963 21.8297 22.6833 22.0426 22.3827C22.0426 22.1448 22.1678 21.7441 22.4433 21.669C22.4057 21.5062 22.4433 21.1931 22.6437 21.1931C22.6437 20.8801 22.7689 20.7173 22.9192 20.5545C22.7188 20.5545 22.9567 20.3541 22.9567 20.3165C22.9943 20.3165 22.9943 20.3917 23.0319 20.3917C23.107 20.3165 22.9943 20.2289 22.9567 20.1913C22.9943 20.1538 23.0319 20.0786 23.0819 20.041C23.1195 20.0786 23.0444 20.2414 23.1195 20.2414C23.1571 20.1162 23.2447 20.041 23.2823 19.9283C23.1571 19.8532 23.1571 20.0911 23.1195 19.9659C23.1195 19.8407 23.1946 19.8031 23.2447 19.7656C23.2072 19.8783 23.3199 19.8407 23.9585 19.1269C23.9209 19.1645 23.9209 19.202 23.9209 19.2897C24.1213 19.2521 23.9961 19.0142 23.9585 18.9266C24.1589 18.7262 24.1589 18.3255 24.3592 18.1251C24.3968 18.1627 24.3592 18.3255 24.3217 18.4006C24.4845 18.1627 24.7599 17.7995 24.7224 17.4865C24.5972 17.6367 24.5972 18.0876 24.4093 18.05C24.5721 17.7369 24.6097 17.3237 24.8852 17.1358C24.8852 17.2611 24.7725 17.2986 24.7725 17.4614C25.1356 16.8979 25.336 16.2593 25.6115 15.7083C25.6115 15.5831 25.5363 15.6332 25.5739 15.5079C25.649 15.5079 25.649 15.5455 25.7367 15.5455C26.0623 14.8693 26.3002 14.1054 26.8136 13.6296C26.8136 13.6045 26.8136 13.592 26.8136 13.567C26.8637 13.5169 26.8888 13.4668 26.9138 13.4167C27.0516 13.1162 27.1643 12.8407 27.1768 12.5401Z" fill="currentColor"/>
<path d="M33.6014 19.0023C33.6014 18.9648 33.5638 19.0023 33.5638 19.0023C33.2508 18.8896 32.6497 19.0399 32.1237 19.1651C31.9985 18.9272 31.6479 18.9648 31.41 18.9648C31.4475 18.9272 31.4475 18.802 31.5727 18.8521C31.5352 18.6893 31.3348 18.8896 31.2597 18.7268C31.2597 18.5265 31.4976 18.6141 31.4976 18.4513C31.46 18.3011 31.2973 18.4889 31.1345 18.4513C31.3348 18.3762 31.41 18.1759 31.5352 18.0131C31.5727 17.8878 31.46 17.9379 31.41 17.8878C31.6479 17.7376 31.9735 17.8878 32.011 17.5748C32.2114 17.7751 32.3241 17.3744 32.4117 17.5748C32.4117 17.4996 32.537 17.4245 32.6497 17.4245C32.7248 17.4996 32.6497 17.4996 32.6121 17.5748C32.7749 17.5748 32.8125 17.4996 32.7373 17.3744C32.8626 17.4496 32.9377 17.3369 33.0128 17.2993C33.0128 17.1866 32.7749 17.4621 32.7749 17.2617C33.8518 16.9862 35.054 16.8986 35.8053 16.3476C35.9305 16.31 35.9305 16.4227 36.0057 16.3851C36.1309 16.4227 36.0432 16.2224 36.1309 16.2224C36.2561 16.1848 36.4941 16.3851 36.5316 16.1472C36.6068 16.1472 36.6068 16.2224 36.5692 16.2724C37.2454 15.759 38.5603 16.3977 38.8483 15.471C39.4493 15.3959 39.3241 16.0345 39.7624 16.0721C40.0755 16.4728 40.4386 16.8234 40.5638 17.3869C40.7266 17.5497 40.927 17.6249 40.927 17.8628C40.8894 17.8628 40.8894 17.9379 40.8894 17.988C40.8143 17.988 40.7642 18.0632 40.6891 18.1508C40.1756 18.276 40.0504 18.827 39.537 18.9898C39.2239 19.3905 38.8608 19.7161 38.4225 19.9916C38.3474 20.192 38.1094 20.192 38.0218 20.4299C37.5835 20.5927 37.3831 21.031 36.9824 21.2313C36.7821 21.3941 36.7069 21.632 36.4189 21.7072C36.1059 22.0703 35.6175 22.3083 35.342 22.6964C34.9788 22.7716 34.8661 23.1347 34.503 23.26C33.7016 23.861 32.9502 24.5372 31.986 25.0632C31.6228 25.4639 31.0218 25.6643 30.621 26.065C30.5835 26.065 30.5835 26.0274 30.5083 26.0274C29.5441 26.7788 28.3545 27.2671 27.0772 27.5802C27.0772 27.5426 27.1148 27.5426 27.1148 27.5051C26.7892 27.7054 26.5137 27.4675 26.3133 27.6678C24.8357 27.4675 24.1219 26.5033 23.4833 25.4263C23.6085 25.2635 23.6085 25.5766 23.7212 25.5015C23.7588 25.3387 23.4833 25.3888 23.596 25.226C23.5208 25.1508 23.5584 25.3011 23.3956 25.2635C23.3205 25.1133 23.358 25.1133 23.3205 24.8628C23.1953 24.7877 23.2453 24.4997 23.1201 24.3369C23.1953 24.1741 23.1577 23.9362 23.1577 23.7358C23.1953 23.6106 23.2829 23.5354 23.2328 23.3351C23.7588 22.0202 24.147 20.8181 25.1112 19.9415C25.1863 19.7412 25.2239 19.5032 25.4242 19.4281C25.4242 19.3029 25.4994 19.2653 25.4618 19.1526C25.825 18.9147 25.9877 18.5515 26.3384 18.3512C27.0146 17.149 28.0915 16.3601 28.893 15.2331C28.8554 15.0703 28.6926 15.471 28.6926 15.2331C28.8554 15.158 29.0933 15.0327 29.2185 14.9952C29.2185 15.1955 29.0182 15.158 28.9806 15.3082C29.0557 15.3458 29.2937 15.2331 29.2561 15.0327C29.6568 14.7572 29.9323 14.1937 30.2955 14.0435C30.7337 13.4799 31.4475 12.6785 32.0987 12.3655C32.6121 11.6016 33.6139 11.4513 34.2525 10.8002C34.2525 10.7626 34.1774 10.7626 34.1774 10.6874C34.7033 10.4495 35.4923 10.5622 36.0182 10.5247C36.0933 10.6499 36.181 10.8502 36.3438 10.725C36.3814 11.0882 36.7445 10.8502 36.8572 11.0882C36.8948 11.1633 36.8196 11.1633 36.8196 11.251C37.1327 11.4513 37.2204 11.8896 37.5334 12.1275C37.4082 12.6535 36.6568 12.6535 36.2561 12.4406C36.0933 12.5658 35.8554 12.6409 35.6175 12.7161C34.503 13.4299 33.3384 14.1186 32.4994 15.1079C30.8965 16.6231 29.4189 18.3011 28.1416 20.1419C27.1022 21.4567 26.3384 22.8217 25.6622 24.5372C25.6997 24.6875 25.6246 24.7376 25.6246 24.9004C25.4994 24.9755 25.4994 25.1383 25.5495 25.2635C28.6675 24.387 30.6586 22.3458 33.1005 20.793C33.1005 20.7555 33.1005 20.7179 33.0629 20.7179C33.5012 20.4424 33.9019 20.1544 34.1774 19.7662C34.3778 19.8789 34.4529 19.5283 34.5781 19.6034C34.7785 19.3279 34.9788 19.09 35.342 18.9648C35.1792 18.7268 34.6282 19.0399 34.2651 19.0023C34.2275 18.9272 34.3026 18.9272 34.2275 18.8395C34.0647 18.8395 33.9896 18.9147 33.7892 18.8771C33.7516 18.9522 33.7141 19.0274 33.6264 19.115C33.6264 19.115 33.5889 19.0775 33.5889 19.0399C33.6014 19.0023 33.6014 19.0023 33.6014 19.0023ZM26.6514 17.5998C26.6514 17.6374 26.6139 17.6374 26.5763 17.6374C26.5638 17.5998 26.6514 17.5998 26.6514 17.5998ZM26.7641 17.412C26.8017 17.3744 26.8393 17.3744 26.8393 17.2868C27.0146 17.3243 26.8518 17.5247 26.7641 17.412ZM26.9645 17.2868C26.9269 17.2868 26.9645 17.2116 26.9269 17.1365C27.1273 17.124 26.9645 17.2116 26.9645 17.2868ZM27.0522 17.6875C27.0522 17.6499 27.0522 17.6499 27.0522 17.5998C27.0522 17.5998 27.0146 17.5998 26.977 17.5998C26.977 17.6374 26.977 17.6374 26.977 17.6875C27.0146 17.6875 27.0522 17.6875 27.0522 17.6875ZM27.0522 17.0488C27.0897 17.0113 27.1273 17.0113 27.1273 16.9236C27.2901 16.9612 27.2024 17.0864 27.0522 17.0488ZM27.2901 16.9236C27.2149 16.8485 27.3276 16.6857 27.4153 16.7233C27.4529 16.8485 27.3652 16.886 27.2901 16.9236ZM27.6031 16.4853C27.5656 16.5229 27.6031 16.6857 27.4403 16.6481C27.4779 16.6106 27.5155 16.573 27.4779 16.4853C27.528 16.4853 27.5656 16.4853 27.6031 16.4853ZM27.7284 16.4478C27.6031 16.4102 27.7284 16.3351 27.7284 16.2474C27.8536 16.2474 27.7659 16.4478 27.7284 16.4478ZM28.1291 16.573C28.1666 16.573 28.2042 16.573 28.2042 16.5354C28.2042 16.5229 28.1291 16.5229 28.1291 16.573ZM28.1666 15.8091C28.2418 15.6839 28.367 15.6088 28.4421 15.5336C28.4046 15.6463 28.367 15.8091 28.1666 15.8091ZM28.6425 15.3708C28.6425 15.446 28.5173 15.4961 28.4421 15.5336C28.4922 15.4084 28.5674 15.2832 28.6425 15.3708ZM28.9681 15.3708C28.8429 15.3708 28.6926 15.5712 28.7302 15.6463C28.8053 15.5712 28.9305 15.4835 28.9681 15.3708ZM29.0057 26.3029C28.9681 26.3029 28.8804 26.3029 28.8804 26.378C28.9681 26.3906 29.0057 26.3405 29.0057 26.3029ZM29.2436 15.0077C29.2436 15.0077 29.206 15.0077 29.206 14.9701C29.2436 14.9701 29.2811 14.9701 29.2436 15.0077ZM29.3688 14.7698C29.3688 14.6946 29.4064 14.607 29.494 14.607C29.4439 14.6445 29.5191 14.8073 29.3688 14.7698ZM29.4815 26.0274C29.5191 26.0274 29.5566 26.0274 29.5566 25.9898C29.5692 25.9898 29.4815 25.9898 29.4815 26.0274ZM30.045 14.5694C29.9699 14.5318 30.0074 14.6445 29.9323 14.6821C30.045 14.6946 30.0826 14.6445 30.045 14.5694ZM30.2829 14.2062C30.2829 14.1687 30.0074 14.369 30.0826 14.4442C30.1577 14.369 30.2078 14.2939 30.2829 14.2939C30.2829 14.3315 30.2454 14.3315 30.2454 14.369C30.4082 14.3315 30.4833 14.2438 30.4833 14.1311C30.4457 14.1311 30.4457 14.056 30.3581 14.056C30.2829 14.1311 30.4833 14.2563 30.2829 14.2939C30.2829 14.2563 30.2829 14.2563 30.2829 14.2062ZM30.8464 13.8556C30.8464 13.7805 30.9216 13.6177 30.8089 13.6177C30.8464 13.7805 30.6085 13.8932 30.6837 13.9808C30.7212 13.8932 30.7964 13.8932 30.8464 13.8556ZM30.9591 13.7304C30.9967 13.6928 31.0343 13.6553 31.0343 13.5676C31.1971 13.5676 31.2346 13.4925 31.2346 13.3672C31.1595 13.4048 31.1094 13.53 31.0343 13.5676C30.9591 13.53 30.884 13.7304 30.9591 13.7304ZM31.0844 13.4173C31.0468 13.4173 31.0092 13.4549 30.9591 13.4925C31.0468 13.4925 31.0844 13.4549 31.0844 13.4173ZM31.435 13.1293C31.435 13.2545 31.3098 13.2045 31.2722 13.2921C31.3974 13.4173 31.5602 13.217 31.435 13.1293ZM31.3599 17.8878C31.3599 17.9254 31.3223 17.9254 31.2847 17.9254C31.2847 17.8878 31.3599 17.8878 31.3599 17.8878ZM31.435 24.7877C31.3599 24.7501 31.2722 24.938 31.3599 24.938C31.3974 24.9129 31.5227 24.9129 31.435 24.7877ZM31.5227 12.9791C31.4475 12.9415 31.3599 13.1043 31.4475 13.1043C31.4851 13.0542 31.5227 13.0166 31.5227 12.9791ZM31.6854 24.675C31.6479 24.5999 31.4851 24.7501 31.5602 24.8002C31.5602 24.7126 31.6854 24.7501 31.6854 24.675ZM31.5978 18.4388C31.6354 18.4388 31.6729 18.4388 31.6729 18.4388C31.7105 18.4388 31.7105 18.4013 31.7105 18.4013C31.7105 18.3637 31.7105 18.3637 31.7105 18.3261C31.7105 18.3261 31.6729 18.3261 31.6354 18.3261C31.6354 18.3637 31.6354 18.3637 31.5978 18.3637C31.5978 18.4013 31.5978 18.4013 31.5978 18.4388ZM31.6854 17.8377C31.723 17.8753 31.5227 17.963 31.6479 18.0005C31.6354 17.963 31.8357 17.8878 31.6854 17.8377ZM31.6354 12.8538C31.723 12.8538 31.6354 12.8163 31.6354 12.8538C31.5978 12.8914 31.6854 12.8914 31.6354 12.8538ZM31.8357 12.8163C31.8733 12.8163 31.9109 12.8163 31.9109 12.7787C31.9234 12.7662 31.8357 12.7662 31.8357 12.8163ZM31.9234 24.5498C31.9234 24.5122 31.9985 24.5122 31.9985 24.4746C31.9609 24.4746 31.9609 24.4371 31.8733 24.4746C31.9234 24.5122 31.8733 24.5498 31.9234 24.5498ZM31.9234 18.3637C31.9609 18.3637 31.9985 18.3637 31.9985 18.3261C31.9985 18.3261 31.9234 18.3261 31.9234 18.3637ZM32.0736 12.4907C32.1112 12.4907 32.1488 12.4907 32.1488 12.4531C32.1613 12.4531 32.0736 12.4531 32.0736 12.4907ZM32.1613 24.3494C32.1989 24.3494 32.2364 24.3494 32.2364 24.3118C32.2364 24.3118 32.1613 24.3118 32.1613 24.3494ZM32.3617 23.9487C32.3992 23.9487 32.4368 23.9487 32.4368 23.9111C32.4368 23.9111 32.3617 23.9111 32.3617 23.9487ZM32.4744 12.4155C32.4744 12.378 32.4744 12.378 32.4744 12.3404C32.4744 12.3404 32.4368 12.3404 32.3992 12.3404C32.3992 12.378 32.3992 12.378 32.3992 12.4155C32.4368 12.4155 32.4744 12.4155 32.4744 12.4155ZM32.5244 11.7018C32.5244 11.7393 32.5244 11.7393 32.5244 11.7769C32.5244 11.7769 32.4869 11.7769 32.4493 11.7769C32.4493 11.7393 32.4493 11.7393 32.4493 11.7018C32.4744 11.7018 32.5244 11.7018 32.5244 11.7018ZM32.7123 12.0148C32.7499 12.0148 32.7874 12.0148 32.7874 11.9773C32.7999 11.9773 32.7123 11.9773 32.7123 12.0148ZM33.0754 17.2492C33.0754 17.2868 33.0379 17.3243 33.0754 17.3744C33.113 17.3243 33.1506 17.2868 33.0754 17.2492ZM33.2758 23.2725C33.3134 23.2725 33.3509 23.2725 33.3509 23.2349C33.3635 23.2349 33.2758 23.2349 33.2758 23.2725ZM33.3134 17.2868C33.3509 17.2868 33.3885 17.2868 33.3885 17.2492C33.401 17.2492 33.3134 17.2492 33.3134 17.2868ZM33.6014 17.1615C33.5638 17.1615 33.4762 17.1991 33.4386 17.2367C33.5513 17.2492 33.6014 17.2492 33.6014 17.1615ZM34.3152 22.5211C34.2776 22.5211 34.24 22.5587 34.1899 22.5963C34.2776 22.5963 34.3152 22.5587 34.3152 22.5211ZM34.9914 10.6248C34.8286 10.6248 34.4279 10.5497 34.2776 10.7375C34.5531 10.7375 34.791 10.7751 34.9914 10.6248ZM34.8286 18.6768C34.7534 18.7143 34.6282 18.7143 34.5531 18.7519C34.6783 18.7143 34.8661 18.8395 34.8286 18.6768ZM34.8286 22.158C34.8286 22.1079 34.791 22.158 34.8286 22.158C34.8661 22.2331 34.9162 22.158 34.8286 22.158ZM35.0289 10.6248C35.0665 10.6248 35.1041 10.6248 35.1041 10.5873C35.1166 10.5747 35.0289 10.5747 35.0289 10.6248ZM35.3921 10.5372C35.3545 10.5372 35.3169 10.5747 35.2669 10.6123C35.3545 10.6248 35.3921 10.5747 35.3921 10.5372ZM37.1077 20.1544C37.1452 20.1544 37.1828 20.1544 37.1828 20.1168C37.1953 20.1168 37.1077 20.1168 37.1077 20.1544ZM38.5477 19.5533C38.5102 19.5533 38.4726 19.5909 38.435 19.6285C38.5102 19.641 38.5477 19.6034 38.5477 19.5533Z" fill="currentColor"/>
<path d="M46.1989 14.7441L46.2114 14.5437C46.0612 14.4185 45.8232 14.3309 45.7857 14.0554C45.5478 14.0428 45.4726 13.8425 45.2347 13.8425C45.3224 13.6797 44.9216 13.6672 44.9342 13.4668C44.6086 13.4167 44.4583 13.4042 44.1703 13.4418C43.4941 14.5312 42.9681 15.9963 42.317 17.2861C41.9413 17.6368 41.8787 18.313 41.5155 18.6511C41.5155 18.7262 41.5531 18.7387 41.5531 18.8139C40.8393 19.7405 41.1148 20.1287 40.401 21.0679C40.4637 21.3935 40.0254 21.5688 40.1255 21.932C39.9628 22.0071 39.8 22.245 39.8626 22.4454H39.7499C39.7499 22.5205 39.8626 22.6457 39.6998 22.6457V22.8085C39.6622 22.8461 39.5746 22.8461 39.4994 22.8461C39.562 23.2468 38.9985 23.347 39.2239 23.6726C39.1488 23.7101 39.1363 23.7978 39.1112 23.8479C39.0987 23.8479 39.0987 23.8604 39.0862 23.8604C38.9985 23.8103 38.9359 23.898 38.9109 24.0107C38.8733 24.0608 38.8357 24.1109 38.8107 24.161C38.7731 24.2361 38.7481 24.3112 38.723 24.3864C38.723 24.3989 38.723 24.3989 38.7105 24.4114C38.7105 24.4114 38.7105 24.4114 38.7105 24.4239C38.698 24.449 38.6855 24.474 38.6855 24.4991C38.6604 24.5366 38.6354 24.5742 38.6103 24.6118C38.5728 24.6869 38.5227 24.7746 38.4851 24.8873C38.5477 24.9123 38.5728 24.8873 38.5853 24.8622C38.5853 24.8747 38.5853 24.8873 38.5853 24.8998C38.5227 25 38.4726 25.1127 38.4225 25.2254C38.3348 25.4132 38.2848 25.6136 38.2347 25.8139C38.1721 26.0268 38.122 26.127 38.0343 26.3023C37.9967 26.3649 37.9842 26.4275 37.9592 26.5026C37.9592 26.5026 37.9592 26.5026 37.9466 26.5026V26.5778C37.9341 26.6529 37.9341 26.7155 37.9592 26.7907C37.9717 26.8533 37.9717 26.9284 37.9592 26.9535C37.9216 27.0286 37.9091 27.1162 37.9091 27.2039C37.9091 27.2164 37.8966 27.2289 37.8966 27.2415C37.8966 27.254 37.9091 27.254 37.9091 27.2665C37.9091 27.3166 37.9216 27.3542 37.9466 27.3917C37.8339 27.517 37.7588 27.6422 37.7463 27.7925C37.7463 27.7549 37.8715 27.6046 37.9091 27.7048C37.9091 27.7173 37.9091 27.7173 37.8966 27.7298C37.7713 27.8676 37.6962 28.0429 37.6336 28.2558C37.5835 28.3434 37.5459 28.4311 37.5209 28.5438C37.4458 28.8068 37.5835 28.9946 37.7713 29.0697C37.7588 29.0948 37.7463 29.1198 37.7463 29.1449C37.9466 29.0322 37.7839 29.2701 37.9341 29.2701C37.9592 29.2075 37.9967 29.1449 38.0218 29.0823C38.1345 29.0697 38.2347 29.0071 38.3223 28.8944C38.3599 28.8318 38.3975 28.7692 38.435 28.7066C38.4601 28.6941 38.4726 28.6565 38.4851 28.6189C38.4851 28.6064 38.4976 28.5939 38.4976 28.5814C38.5102 28.5688 38.5227 28.5563 38.5602 28.5563C38.5978 28.644 38.435 28.7567 38.5477 28.7942C38.6729 28.6064 38.7856 28.3935 38.9109 28.2182C39.0111 28.1681 39.1112 28.118 39.2114 28.0679C39.2991 28.0554 39.3993 28.0304 39.4619 27.9678C39.4869 27.9552 39.4994 27.9302 39.512 27.9177H39.5746V27.8551C39.5746 27.8425 39.5871 27.8425 39.5996 27.83C39.6121 27.8175 39.6121 27.805 39.6247 27.7925C39.6247 27.7799 39.6372 27.7674 39.6497 27.7424C39.6622 27.7173 39.6747 27.7048 39.6873 27.6798C39.7499 27.5921 39.8125 27.4919 39.7624 27.4293C39.7624 27.4543 39.7374 27.4919 39.7123 27.517C39.7123 27.4919 39.7123 27.4794 39.6998 27.4543C39.7874 27.3166 39.9001 27.1663 39.9502 27.0787C39.9628 27.0662 39.9628 27.0411 39.9753 27.0286C40.0755 27.0035 40.1506 26.8783 40.1631 26.7781C40.2508 26.6905 40.3635 26.6529 40.5137 26.6905C40.7391 26.7531 40.9771 26.6404 41.0647 26.415C41.2526 26.127 41.3402 25.6887 41.6282 25.4883C41.6658 25.3756 41.7159 25.2629 41.7535 25.1502C41.8161 25.0375 41.8912 24.9373 41.9538 24.8246C42.1542 24.4865 42.0164 24.5992 42.1667 24.2486C42.2794 24.0357 42.3921 23.8228 42.4798 23.5974C42.7427 23.1466 42.8554 23.1216 43.1309 22.6708C43.3939 22.245 43.5817 21.7817 43.732 21.3184H43.7445C43.7445 21.3058 43.7445 21.2933 43.7445 21.2683C43.757 21.2432 43.7571 21.2182 43.7696 21.1931C43.8197 21.118 43.8698 21.0303 43.9198 20.9552C43.9324 20.9427 43.9449 20.9176 43.9449 20.9051C43.9825 20.8175 44.0325 20.7298 44.0701 20.6547H44.0952V20.6046C44.1077 20.5795 44.1202 20.567 44.1202 20.542C44.1327 20.5169 44.1452 20.4919 44.1578 20.4543C44.2079 20.4042 44.2579 20.3166 44.2454 20.254C44.2579 20.2414 44.2579 20.2164 44.2705 20.2039C44.308 20.1287 44.3456 20.0536 44.3706 19.9785C44.5084 19.7906 44.6712 19.5527 44.6837 19.3273C44.7338 19.2271 44.7839 19.1269 44.834 19.0268C45.147 18.5259 45.3599 17.9624 45.6354 17.4615C45.6855 17.4114 45.7105 17.3613 45.7356 17.2987C45.7481 17.2987 45.7481 17.2987 45.7606 17.2987C46.1113 16.635 46.3742 15.8836 46.9002 15.4203C46.9377 15.0446 46.4243 14.982 46.1989 14.7441Z" fill="currentColor"/>
<path d="M43.5441 27.8053C43.3438 27.68 43.4189 28.3187 43.1058 28.1183C43.469 27.5172 43.7821 26.9663 44.0701 26.3151C43.9448 26.3527 43.8321 26.6281 43.7069 26.553C43.7445 26.4779 43.7821 26.3527 43.9073 26.3527C43.9449 25.6389 44.5459 25.2757 44.6211 24.7623C44.4958 24.8374 44.4958 25.0378 44.2955 25.0754C44.1828 24.7999 44.6211 24.6371 44.4207 24.3115C44.7463 24.2364 44.8214 23.8732 44.9842 23.6729C45.0218 23.5476 44.9842 23.4349 44.9466 23.3598C45.0719 23.3222 45.0719 23.1594 45.0719 22.9966C45.1971 22.9591 45.1971 22.8714 45.2722 22.8339C45.3098 22.3079 45.6354 22.1201 45.7105 21.6818C46.3492 20.9179 46.6246 19.8034 47.2257 19.0396C47.4261 18.5261 48.0397 17.2864 48.3653 16.8857C48.3653 16.8106 48.3653 16.7229 48.3653 16.6478C48.9663 15.9716 49.2043 14.8946 49.8053 14.256C49.9306 13.6174 50.3688 13.0538 50.5567 12.4152C50.995 12.2148 51.0826 11.7014 51.283 11.3007C50.9574 11.3383 50.5191 11.3758 50.3188 11.3007C49.7552 11.6138 49.3545 11.3383 48.8411 11.5386C48.8411 11.5011 48.8411 11.4635 48.8035 11.4635C48.766 11.5011 48.7284 11.5386 48.6783 11.5887C48.0772 11.6639 47.6014 11.5512 47.1255 11.7891C46.1738 11.5887 45.0844 12.027 44.0075 11.9394C43.9699 11.7891 43.8447 11.6263 43.6443 11.5386C43.5692 11.0127 43.4064 10.3866 43.4815 9.82306C43.4815 9.74793 43.4064 9.74793 43.3563 9.66027C43.3563 9.45991 43.4314 9.38478 43.3939 9.18442C43.5567 8.90893 43.7069 8.62091 44.0325 8.50821C44.2329 8.50821 44.4332 8.50821 44.596 8.50821C45.4726 9.14685 47.1506 8.7837 48.3026 8.7837C50.6193 8.58334 52.8483 8.10749 55.0147 8.18263C55.4905 7.98227 55.6533 8.0574 56.1667 8.10749C56.4422 8.03236 56.8805 7.98227 57.131 8.06993C57.3689 7.90713 57.3313 8.06993 57.5692 8.03236C57.6068 8.10749 57.5317 8.10749 57.5317 8.19515C57.6569 8.19515 57.6569 7.95722 57.732 8.15758C57.8072 7.99479 57.8072 7.99479 58.0075 8.03236C58.0451 8.15758 57.97 8.15758 57.9324 8.23272C58.1327 8.12001 58.3331 8.27028 58.4082 8.03236C58.571 8.03236 58.4082 8.27028 58.5335 8.34542C58.7714 8.30785 59.0469 8.42055 59.2848 8.34542C59.3224 8.42055 59.2472 8.58334 59.4852 8.54578C59.5227 8.62091 59.4476 8.82127 59.5603 8.7837C59.6855 8.74614 59.5227 8.62091 59.5979 8.54578C59.7982 8.54578 59.7982 8.58334 59.9235 8.50821C60.0862 8.58334 60.2365 8.58334 60.3993 8.58334C60.4744 8.74614 60.3242 8.70857 60.3242 8.82127C60.487 8.7837 60.487 8.70857 60.5997 8.7837C60.6372 8.671 60.5621 8.62091 60.5621 8.54578C60.7249 8.58334 60.7249 8.74614 60.7249 8.87136C60.6498 8.94649 60.6498 8.87136 60.487 8.87136C60.5997 9.03415 60.6873 8.99658 60.8877 8.99658C61.0505 8.95902 60.9252 8.68352 61.1256 8.72109C61.1632 8.83379 61.088 8.88388 61.0505 8.95902C61.088 9.03415 61.326 8.95902 61.326 9.03415C61.4512 9.03415 61.3635 8.87136 61.3635 8.79623C61.5263 8.75866 61.4387 8.95902 61.4387 9.03415C61.639 8.90893 61.8769 9.23451 62.1149 9.19694C62.1524 9.32217 61.9896 9.23451 61.9521 9.32217C62.0773 9.44739 62.1149 9.19694 62.2276 9.32217C62.3904 9.32217 62.1524 9.19694 62.2651 9.19694C62.4279 9.15938 62.5031 9.15938 62.6283 9.19694C62.6659 9.32217 62.6283 9.47244 62.7034 9.47244C62.7786 9.47244 62.6659 9.27208 62.8286 9.30964C62.7911 9.51 62.9539 9.67279 62.9539 9.91072C62.7535 9.98585 62.6408 9.94829 62.4279 9.98585C62.4655 10.1486 62.4655 10.1486 62.4279 10.3114C62.3027 10.3114 62.3904 10.0735 62.2276 10.0735C61.9145 10.637 60.8626 10.1111 60.4243 10.4742C60.2991 10.5118 60.3492 10.349 60.2616 10.2739C59.5102 10.6746 58.6211 10.349 57.8322 10.637C57.707 10.6746 57.7571 10.4742 57.6318 10.4742C57.5567 10.4742 57.5066 10.5118 57.5066 10.637C57.181 10.637 57.0683 10.5619 56.9055 10.7622C56.7052 10.5619 56.0665 10.637 55.7535 10.7998C55.478 10.5619 55.0397 10.925 54.6014 10.8749C54.0755 11.6764 53.7624 12.7157 53.249 13.5547C53.249 13.6299 53.249 13.7175 53.249 13.7927C52.7231 14.7068 52.2472 15.7086 51.8089 16.7104C51.7338 16.6728 51.7338 16.7855 51.6461 16.7855C51.6461 16.8607 51.6461 16.9108 51.6461 16.9859C51.4082 17.2989 51.1327 17.6245 51.0451 18.1004C50.5191 18.977 49.5925 20.655 49.1542 21.6567C48.8286 21.9698 48.7535 22.5709 48.3527 22.8589C48.3527 23.0593 48.2776 23.172 48.1524 23.2972C47.6765 24.5745 46.8751 25.5387 46.3116 26.7784C46.1864 26.816 46.1488 26.9788 46.0361 27.0163C46.0737 27.2167 46.0361 27.3795 45.8357 27.4171C45.7606 28.0557 45.1971 28.2561 45.122 28.9323C44.9592 28.9698 44.9216 29.1702 44.7212 29.2078C44.7212 29.2453 44.9216 29.333 44.7588 29.3706C44.7212 29.3706 44.6837 29.333 44.6837 29.2453C44.5209 29.4833 44.4833 29.884 44.283 30.2096C43.8822 30.5727 43.5316 30.9233 43.206 31.4117C43.1309 31.4117 43.0432 31.4117 42.9681 31.4117C43.0057 31.2114 43.0057 31.1362 42.893 30.9734C42.7677 30.9734 42.7677 31.1362 42.5674 31.0986C42.6425 30.8607 42.7677 30.6979 42.6926 30.3348C42.893 29.9341 43.1685 29.5333 43.1685 29.0951C43.3688 28.9323 43.6067 28.494 43.4064 28.2561C43.4565 28.0807 43.5066 27.9305 43.5441 27.8053ZM42.9431 28.7194C42.9431 28.7194 42.9431 28.7194 42.9055 28.757C42.8679 28.757 42.9055 28.6818 42.8679 28.6317C42.9431 28.6443 42.9431 28.6818 42.9431 28.7194ZM43.0683 28.4439C43.0307 28.4439 43.0683 28.3562 43.0307 28.2811C43.181 28.2435 43.1058 28.4063 43.0683 28.4439ZM43.2185 28.519C43.2185 28.3562 43.2561 28.2435 43.4189 28.2435C43.3813 28.3187 43.4189 28.519 43.2185 28.519ZM43.6568 26.6908C43.6193 26.9663 43.3813 27.0915 43.2937 27.4045C43.1309 27.2042 43.5316 26.9287 43.5316 26.6908C43.5817 26.6908 43.6193 26.6908 43.6568 26.6908ZM43.5441 28.0432C43.5817 28.1183 43.5441 28.1684 43.6193 28.1684C43.6568 28.0807 43.6193 28.0432 43.5441 28.0432ZM43.8572 25.9269C43.6944 25.9645 43.8196 25.7265 43.8572 25.8518C43.8572 25.8893 43.8572 25.8893 43.8572 25.9269ZM43.9824 25.7265C43.8196 25.6514 44.02 25.3258 44.1452 25.3258C44.1327 25.4886 44.0575 25.6138 43.9824 25.7265ZM44.0575 26.2149C44.2955 26.1773 44.2955 25.9394 44.3706 25.7391C44.2955 25.7391 44.2454 25.7391 44.1703 25.7766C44.2203 26.002 44.0951 26.0521 44.0575 26.2149ZM44.4207 25.6514C44.4207 25.5763 44.4583 25.5262 44.3456 25.5262C44.3456 25.5637 44.3456 25.5637 44.3456 25.6013C44.3831 25.6138 44.4207 25.6514 44.4207 25.6514ZM44.8966 24.2865C44.9341 24.2865 44.9717 24.2865 44.9717 24.2865C44.9717 24.2489 45.0093 24.1612 44.9341 24.1612C44.9341 24.1988 44.8966 24.1988 44.859 24.2364C44.8966 24.2489 44.9341 24.2489 44.8966 24.2865ZM58.3707 8.28281C58.3331 8.28281 58.2454 8.32037 58.2079 8.35794C58.2955 8.40803 58.4082 8.40803 58.3707 8.28281ZM58.6837 8.24524C58.7213 8.13254 58.9968 8.08245 59.1596 8.20767C59.1721 8.32037 58.8465 8.32037 58.6837 8.24524ZM60.3617 8.92145C60.4369 8.92145 60.4369 8.95902 60.4369 8.92145C60.4494 8.88388 60.4118 8.88388 60.3617 8.92145ZM60.8501 8.92145C60.8125 8.88388 60.775 8.79623 60.8125 8.75866C60.9252 8.75866 60.9252 8.88388 60.8501 8.92145ZM61.2383 9.15938C61.2759 9.23451 61.2383 9.32217 61.2759 9.32217C61.2884 9.24703 61.4387 9.15938 61.2383 9.15938ZM61.7267 9.19694C61.7267 9.27208 61.7642 9.32217 61.8519 9.32217C61.8769 9.19694 61.7642 9.24703 61.7267 9.19694ZM62.5657 9.63523C62.6033 9.67279 62.8036 9.71036 62.8036 9.63523C62.8036 9.59766 62.6033 9.56009 62.5657 9.63523ZM63.0415 9.44739C63.0415 9.48496 63.004 9.48496 62.9664 9.48496C62.9664 9.44739 63.0415 9.44739 63.0415 9.44739Z" fill="currentColor"/>
<path d="M52.7726 24.0364C53.0481 24.074 53.1358 23.9613 53.3737 23.9613C53.4488 23.9237 53.4112 23.7985 53.4488 23.7233C54.4882 23.4854 55.4399 23.1222 56.2413 22.5212C56.2037 22.446 56.0785 22.2832 56.2789 22.2457C56.3164 22.0829 56.0785 22.3208 56.0785 22.2081C56.1537 22.0829 56.2037 21.9326 56.2413 21.7323C59.3218 20.8933 62.7154 20.1294 66.109 20.6178C66.109 20.455 66.109 20.3047 66.2718 20.3798C66.3093 20.1795 66.109 20.1043 66.2342 19.904C65.9963 19.8289 66.0338 19.4657 65.9963 19.2653C65.7959 19.2278 65.558 19.0274 65.5956 18.8646C65.2324 18.7018 64.9569 18.7394 64.6814 18.539C64.7566 18.5766 64.7941 18.539 64.7941 18.4639C64.5186 18.4263 64.1555 18.3888 63.88 18.3888C63.8675 18.3637 63.88 18.3387 63.8925 18.3011C63.8549 18.2886 63.8174 18.2886 63.7798 18.2761C63.7673 18.3011 63.7548 18.3262 63.7172 18.3011C63.0034 18.0256 62.1268 18.0632 61.2378 18.1759C59.8853 18.3387 58.846 18.4514 57.2055 18.777C57.2055 18.9022 57.0427 18.9773 56.9676 18.9022C57.7315 18.0632 58.5204 17.2993 59.2843 16.4603C59.3218 16.1848 59.0839 15.9469 58.9587 15.6589C59.3218 15.3834 60.0356 15.1329 60.5115 15.0202C61.4757 14.6195 62.5526 14.3065 63.7047 14.0685C63.8299 13.9433 64.0678 14.031 64.1805 13.9058C65.4202 13.6678 66.5347 13.5426 67.7745 13.4299C67.7745 13.505 67.812 13.505 67.8496 13.505C68.0875 13.505 68.3755 13.4675 68.5634 13.5802C68.0875 14.3065 67.7244 14.8575 66.973 15.2957C66.973 15.4585 66.8979 15.4961 66.9355 15.6088C66.6099 15.7716 66.3719 15.9719 66.134 16.1723H66.2592C66.2592 16.0972 66.4596 16.022 66.4972 16.0596C66.4596 16.1347 66.3719 16.1723 66.2592 16.1723C66.0589 16.4478 65.6206 16.4979 65.5079 16.861C65.9462 16.7358 66.1841 16.3852 66.6224 16.2975C66.5473 16.3727 66.422 16.4102 66.3469 16.4979C66.5848 16.6231 66.6224 16.2975 66.7476 16.4228C66.7852 16.6607 66.5097 16.6231 66.4721 16.7358C66.9104 16.6982 67.3111 16.2224 67.6743 16.3351C68.075 16.1347 68.7136 15.8592 69.1895 15.7716C69.465 15.4585 69.9534 15.3333 70.1913 14.9702C70.2288 14.9326 70.2664 14.9702 70.3165 14.9702C70.3165 14.7322 70.6797 14.607 70.6797 14.2939C70.5544 13.2922 70.6797 11.7394 69.5276 11.3011C69.5276 11.226 69.5276 11.1884 69.4525 11.1383C69.1394 11.1383 68.7387 10.8628 68.1752 10.9004C68.1 10.9379 68.1376 10.7751 68.0124 10.7751C67.9372 10.8127 67.9373 10.8503 67.8496 10.9004C67.6868 10.7751 67.2485 10.7376 67.0857 10.9004C67.0106 10.9004 66.973 10.8252 66.8854 10.7751C62.4524 11.1383 58.4202 12.6911 54.5508 14.7698C54.4757 15.1329 54.1876 15.2957 54.1125 15.5337C54.3129 15.6088 54.2753 15.8467 54.2377 16.0095C54.4757 16.5229 54.4381 16.9237 54.6009 17.3995C54.7637 17.4371 54.8388 17.5623 54.964 17.5999C53.9247 18.7144 52.973 19.8789 52.0463 21.1187C51.9712 21.5569 51.6456 22.0704 51.9712 22.4335C51.896 22.709 52.134 23.0722 52.0964 23.235C52.2216 23.6357 52.6599 23.6858 52.7726 24.0364ZM66.7852 16.4478C66.8228 16.4102 66.8603 16.3727 66.8603 16.2975H66.9855C66.9855 16.4102 66.9104 16.4478 66.7852 16.4478Z" fill="currentColor"/>
<path d="M65.3829 17.3496C65.3704 17.3997 65.3454 17.4497 65.3203 17.4998V17.5124C65.721 17.3245 66.1092 17.0615 66.3972 16.8612C66.0591 16.8236 65.696 17.2118 65.3829 17.3496Z" fill="currentColor"/>
<path d="M61.3258 22.8473C61.2507 22.8473 61.2883 22.7721 61.163 22.7721C61.0378 22.9349 60.8375 22.8097 60.7623 22.9349C57.6818 23.3357 54.8893 24.375 52.3347 25.2516C52.2972 25.4519 52.4099 25.2516 52.4099 25.3267C52.2095 25.6398 51.6084 25.5646 51.7712 25.9654C51.7337 25.9654 51.7337 25.9278 51.646 25.9278C51.5208 26.6416 51.7712 27.2051 51.9591 27.6809C52.1594 27.7185 52.1594 27.6434 52.2721 27.6058C52.3097 27.6434 52.3097 27.6434 52.3097 27.6809C52.4725 27.6434 52.5476 27.6058 52.7104 27.6434C53.2739 27.2051 54.1505 27.0924 54.8267 26.892C55.4653 26.6165 56.1916 26.4162 56.9806 26.2534C57.1058 26.2158 57.1433 26.1282 57.2561 26.0906C58.4081 25.9278 59.2972 25.4519 60.4493 25.2892C60.6496 25.214 60.9627 24.9761 61.2507 25.0137C61.2507 24.9761 61.2507 24.9385 61.2883 24.901C61.4886 25.214 62.0396 24.7006 62.2901 24.8634C62.3276 24.8258 62.2525 24.663 62.3276 24.663C62.8536 24.5002 63.367 24.5002 63.918 24.3875C64.0432 24.2748 63.918 24.1872 64.0432 24.0745C64.0808 24.0745 64.0808 24.0745 64.1183 24.0369C64.2436 24.0745 64.1935 24.1997 64.2811 24.1997C64.4064 24.1621 64.206 24.0369 64.3187 23.9993C64.4439 23.9618 64.4815 24.2373 64.5566 24.0745C64.5191 24.0745 64.5191 24.0369 64.4815 23.9993C64.6818 24.0369 64.757 23.9242 64.8822 23.9993C65.0074 23.9618 64.8446 23.799 64.9198 23.7614C64.9949 23.8741 65.045 23.9618 65.045 24.0745C65.2078 24.0745 65.045 23.8366 65.2829 23.9493C65.2829 23.8741 65.2829 23.7865 65.3581 23.7489C65.3581 24.112 65.7212 23.7865 65.7963 23.8616C65.8339 23.7489 65.6711 23.8616 65.7212 23.7113C65.7963 23.6738 66.0343 23.7113 65.9216 23.8616C66.0844 23.8992 65.9591 23.6612 66.1219 23.7113C66.2471 23.7489 66.2471 23.9117 66.3598 23.8616C66.3598 23.7113 66.4851 23.8992 66.5978 23.824C66.6353 23.7865 66.5602 23.5861 66.6729 23.6237C66.748 23.7489 66.748 23.8992 66.9484 23.824C67.0235 23.7113 66.9484 23.6612 67.0736 23.5485C67.1112 23.5861 67.0736 23.7113 67.1863 23.6738C67.5495 23.4358 67.9502 23.6738 68.5513 23.511C68.7141 23.3857 68.5888 23.273 68.7516 23.1478V23.3482C68.8769 23.1478 69.1148 23.1478 69.3151 23.1478C69.3903 22.9475 69.4779 22.8723 69.5906 22.6219C67.3116 22.121 63.63 22.5217 61.3258 22.8473ZM63.8303 24.2748C63.7928 24.2748 63.7928 24.2373 63.7928 24.1496C63.8679 24.1496 63.8679 24.1872 63.8679 24.2247C63.8303 24.2373 63.8303 24.2748 63.8303 24.2748ZM69.2275 22.7221C69.2651 22.7221 69.265 22.7221 69.3026 22.7221C69.3026 22.7596 69.3026 22.7972 69.3026 22.7972C69.265 22.7972 69.2651 22.7972 69.2275 22.7972C69.2275 22.7972 69.2275 22.7596 69.2275 22.7221Z" fill="currentColor"/>
<path d="M68.8901 15.8957C68.9656 15.8957 68.8901 15.8579 68.8901 15.8957C68.7265 15.8579 68.8901 16.0215 68.8901 15.8957Z" fill="currentColor"/>
<path d="M70.4541 10.8998C70.4921 10.8998 70.53 10.8998 70.53 10.8618C70.5047 10.8998 70.4541 10.8618 70.4541 10.8998Z" fill="currentColor"/>
<path d="M88.6874 9.98589C88.6122 10.2238 88.4119 10.3866 88.2115 10.4617C88.2115 10.4993 88.2866 10.4993 88.3743 10.4993C88.0988 10.7748 87.6981 10.9752 87.3725 11.2632C87.3349 11.3884 87.5729 11.5011 87.4477 11.5762C87.4477 11.7766 87.2849 11.5387 87.2473 11.5387C87.1722 11.8142 86.809 11.9018 86.8841 12.1773C86.4083 12.4152 86.1328 12.8535 85.682 13.0915C85.682 13.1666 85.8448 13.129 85.9199 13.129C85.8448 13.3294 85.7947 13.6049 85.5943 13.4546C85.5192 13.5297 85.5943 13.6049 85.5943 13.7301C85.3188 14.0432 84.9933 14.3312 84.843 14.7194C84.4798 15.0825 83.9664 15.3204 83.7661 15.7963C83.5281 15.7963 83.4906 16.1594 83.2526 16.0342C82.8144 16.5602 82.4512 17.1111 81.8126 17.3866C81.5746 17.7122 81.2491 17.9877 80.8483 18.138C80.8108 18.5387 80.4852 18.6639 80.2097 18.7766C80.0469 19.2149 79.5711 19.29 79.3707 19.6908C79.3331 19.7283 79.258 19.7283 79.1703 19.7283C78.8072 20.2543 78.2938 20.5673 77.893 21.0056C78.2061 22.4833 78.3313 24.1613 77.5299 25.2758C77.3295 25.2382 77.3295 25.3509 77.2168 25.3509C76.5782 24.6622 76.215 23.8357 75.902 22.909C74.5871 24.0235 73.1471 25.3509 71.6694 26.4654C71.6318 26.503 71.6318 26.5781 71.5943 26.6157C71.3939 26.7785 71.0308 26.8912 70.7928 27.0539C70.6676 27.1291 70.5925 27.2919 70.5173 27.3294C70.2419 27.5298 69.6408 27.3294 69.2776 27.3294C69.0021 27.2543 68.8018 27.0915 68.4762 27.0539C68.4386 26.7785 68.113 26.8536 68.0003 26.6532C67.9628 26.4904 67.8375 26.4153 67.8751 26.2149C68.3134 25.5387 69.19 25.2507 69.6283 24.5369C71.5442 23.172 73.0594 21.4189 74.775 19.8285C73.9735 17.3992 73.4977 14.9197 72.1453 13.0789C71.5442 13.0414 71.419 12.5655 71.3438 12.2024C71.5817 10.6871 73.385 11.1254 74.6623 11.4009C74.9753 11.8768 75.5388 12.2024 75.6265 12.841C76.0272 13.2793 76.1524 13.9555 76.4279 14.519C76.4655 15.1577 76.9413 15.5584 76.9413 16.3222C77.1417 16.5977 77.2669 17.1612 77.3045 17.562C79.0201 16.172 80.6229 14.6442 82.4888 13.417C82.5639 13.3795 82.5639 13.2918 82.6516 13.2167C82.6891 13.2167 82.7768 13.2167 82.8144 13.2167C82.8144 13.1415 82.9271 13.1415 82.8895 13.0163C83.2902 12.9036 83.5657 12.6156 83.8913 12.3777C84.4172 12.1773 84.8555 11.9018 85.2562 11.5762C85.8573 11.426 86.258 11.0127 86.7714 10.7372C87.5729 10.4993 88.174 9.86067 88.9253 9.74797C88.9629 9.89824 88.7625 9.8231 88.7625 9.94833C88.8001 10.0235 88.8001 10.1487 88.9253 10.1487C88.8877 10.2238 88.8001 10.3115 88.6498 10.3115C88.8126 10.2238 88.6874 10.1487 88.6874 9.98589ZM87.6981 11.426C87.6605 11.2256 87.8233 11.2256 87.9736 11.188C87.9736 11.3884 87.8108 11.3383 87.6981 11.426ZM88.174 11.0628C88.174 10.9877 88.2992 10.9877 88.3367 11.0253C88.3242 11.1004 88.2115 11.1004 88.174 11.0628ZM88.3743 10.4993C88.4119 10.3866 88.5371 10.3866 88.6498 10.349C88.5747 10.4242 88.5246 10.5494 88.3743 10.4993ZM89.2884 9.74797C89.2884 9.78553 89.2509 9.78553 89.2133 9.78553C89.2133 9.74797 89.2509 9.74797 89.2884 9.74797ZM89.2509 9.66031C89.1757 9.62274 89.2509 9.58517 89.2509 9.54761C89.326 9.58517 89.2509 9.62274 89.2509 9.66031ZM89.3636 10.0235C89.2384 9.86067 89.6015 9.8231 89.7267 9.7104C89.6892 9.89824 89.4512 9.86067 89.3636 10.0235Z" fill="currentColor"/>
<path d="M31.1077 5.05217C31.0702 4.95199 31.0827 4.7892 31.1954 4.65145C31.1328 4.6264 31.0702 4.60136 31.0076 4.57632C30.9449 4.57632 30.9449 4.56379 30.9575 4.55127C30.7822 4.47614 30.6319 4.38848 30.5067 4.2883C30.3439 4.2883 30.1811 4.27578 30.0183 4.25073C29.7678 4.2883 29.5174 4.33839 29.292 4.41352C28.8036 4.56379 28.3278 4.7892 27.8644 5.0146C27.8519 5.06469 27.877 5.10226 27.927 5.15235C27.7517 5.25253 27.614 5.45288 27.7643 5.54054C27.7142 5.55306 27.6641 5.56559 27.614 5.57811C27.639 5.6282 27.8143 5.65324 27.614 5.70333C27.6265 5.72838 27.639 5.77847 27.6516 5.79099C27.614 5.82856 27.5138 5.8536 27.4136 5.87865C27.614 6.07901 26.9503 6.3545 27.326 6.45468C27.2508 6.50477 27.2634 6.56738 27.2383 6.60495C27.2383 6.65504 27.2383 6.71765 27.2133 6.76774C27.2383 6.78026 27.2383 6.80531 27.2759 6.80531C27.2508 6.83035 27.2258 6.8554 27.2133 6.88044C27.1256 6.94305 27.1131 7.01819 27.1006 7.09332C27.1006 7.10584 27.1006 7.11837 27.1131 7.13089C27.1131 7.11837 27.1131 7.10584 27.1006 7.09332C27.1131 7.15593 27.1381 7.21854 27.1381 7.28116C27.1381 7.31872 27.1381 7.36881 27.1381 7.40638C27.1381 7.4189 27.1381 7.43143 27.1256 7.43143C27.1381 7.45647 27.1381 7.50656 27.2634 7.45647C27.4011 7.4189 27.3009 7.25611 27.4261 7.25611H27.4387C27.4261 7.28116 27.4011 7.3062 27.3886 7.34377C27.3761 7.40638 27.3886 7.44395 27.3886 7.49404C27.3134 7.55665 27.2508 7.61926 27.2383 7.66935C27.0755 7.66935 26.8251 7.86971 27.0254 7.94485C27.2383 7.90728 26.9879 7.85719 27.1381 7.8071C27.1757 7.79458 27.2258 7.8071 27.2759 7.81962C27.2759 7.83214 27.2634 7.85719 27.2634 7.86971C27.2133 7.90728 27.1632 7.93232 27.088 7.96989C27.1006 8.15773 27.0004 8.35809 26.9002 8.57097C26.9002 8.58349 26.9002 8.60853 26.9002 8.62106C26.9002 8.60853 26.9002 8.58349 26.9002 8.57097C26.9002 8.62106 26.9002 8.68367 26.8752 8.73376C26.8752 8.73376 26.8752 8.73376 26.8752 8.74628C26.8752 8.74628 26.8752 8.74628 26.8752 8.7588C26.8752 8.78385 26.8752 8.79637 26.8752 8.82141C26.8752 8.8715 26.8752 8.93412 26.8752 8.98421C26.8752 9.04682 26.8752 9.10943 26.8626 9.15952C26.8626 9.18456 26.8501 9.20961 26.8376 9.23465C26.8501 9.23465 26.8626 9.23465 26.8752 9.23465C26.6873 9.44754 26.6748 9.66042 26.6748 9.92339C26.9002 9.81069 26.9127 9.69798 26.8501 9.56024C27.1632 9.4851 26.9879 9.43501 27.0505 9.3724C27.0755 9.38492 27.1131 9.39745 27.1507 9.39745C27.0755 9.5978 26.9753 9.79816 26.9253 9.99852C27.0755 9.96095 26.9753 9.84825 27.1882 9.84825C27.326 9.91086 27.0505 10.0486 27.088 10.1363C27.3009 9.99852 27.1632 10.1864 27.3635 10.1363C27.4387 9.93591 27.5263 9.74807 27.7267 9.56024C27.7517 9.61033 27.7016 9.64789 27.7142 9.67294C27.927 9.63537 27.7768 9.54771 27.9145 9.51015C27.9897 9.54771 27.8143 9.67294 27.9771 9.64789C28.1149 9.43501 28.19 9.22213 28.3653 9.0343C28.3653 9.0343 28.3653 9.0343 28.3779 9.02177C28.4154 8.98421 28.453 8.94664 28.5031 8.90907C28.4906 8.90907 28.4655 8.90907 28.453 8.90907C28.4655 8.8715 28.478 8.83394 28.5031 8.79637C28.5281 8.79637 28.5406 8.79637 28.5657 8.78385C28.5406 8.77132 28.5406 8.7588 28.5156 8.74628C28.5281 8.73376 28.5281 8.70871 28.5406 8.68367C28.5532 8.65862 28.5657 8.6461 28.5782 8.62106C28.5782 8.60853 28.5782 8.60853 28.5907 8.60853C28.6033 8.60853 28.6283 8.59601 28.6533 8.59601C28.6659 8.54592 28.7034 8.48331 28.716 8.44574C28.741 8.4207 28.766 8.38313 28.7911 8.34556C28.7911 8.34556 28.7911 8.34556 28.7911 8.33304C28.8036 8.33304 28.8036 8.33304 28.8161 8.33304C28.8161 8.32052 28.8161 8.32052 28.8036 8.308C28.8287 8.27043 28.8537 8.22034 28.8662 8.17025C28.8662 8.15773 28.8787 8.15773 28.8787 8.1452C28.8913 8.13268 28.9038 8.10764 28.9163 8.09511C28.9414 8.08259 28.9664 8.07007 29.0165 8.07007C29.029 8.0325 29.029 7.99493 29.0165 7.96989C29.029 7.95737 29.0415 7.94485 29.0415 7.93232C29.0666 7.89476 29.0791 7.85719 29.0916 7.81962C29.1042 7.8071 29.1042 7.78205 29.1167 7.76953L29.1292 7.75701C29.1542 7.75701 29.1668 7.75701 29.2043 7.75701C29.1918 7.73196 29.1918 7.70692 29.1793 7.68187C29.2043 7.64431 29.2294 7.60674 29.2544 7.5817C29.2544 7.5817 29.2669 7.56917 29.2669 7.55665C29.5675 7.44395 29.605 7.25611 29.6927 7.10584C29.6802 7.10584 29.6802 7.10584 29.6677 7.10584C29.6802 7.09332 29.6927 7.06828 29.7052 7.05575C29.7303 7.01819 29.7553 6.98062 29.7678 6.94305C29.7678 6.93053 29.7678 6.93053 29.7678 6.91801C29.8305 6.86792 29.8805 6.80531 29.868 6.75522C29.8931 6.71765 29.9181 6.68008 29.9306 6.62999C29.9306 6.64251 29.9306 6.64251 29.9306 6.65504C29.9306 6.64251 29.9432 6.64251 29.9432 6.62999C29.9557 6.62999 29.9682 6.61747 29.9807 6.61747C29.9682 6.60495 29.9682 6.60495 29.9682 6.59242C29.9682 6.59242 29.9682 6.5799 29.9807 6.5799C30.0183 6.52981 30.0559 6.4672 30.1059 6.41711C30.131 6.39207 30.1435 6.36702 30.156 6.32945C30.156 6.32945 30.156 6.32945 30.1686 6.32945C30.1936 6.31693 30.2186 6.31693 30.2312 6.30441C30.2186 6.30441 30.1936 6.31693 30.1811 6.31693C30.2186 6.30441 30.2437 6.29189 30.2687 6.27936C30.2813 6.29189 30.2938 6.31693 30.3188 6.32945C30.3439 6.26684 30.4941 6.22927 30.5818 6.17918C31.1453 5.47793 30.8322 5.42784 31.1077 5.05217Z" fill="currentColor"/>
<path d="M53.4611 0.668601C53.3985 0.45572 53.2357 0.280406 53.0479 0.180226C52.9101 0.117614 52.7724 0.0800471 52.6221 0.0675247C52.5971 0.0550023 52.5595 0.0424798 52.5345 0.0299574C52.3091 0.0049126 52.0836 -0.00760981 51.8708 0.0049126C51.7205 0.017435 51.5702 0.0424798 51.42 0.0800471C51.1319 -0.0451771 50.7938 0.0550023 50.5935 0.305451C50.5684 0.317973 50.5434 0.317973 50.5309 0.330495C50.5183 0.35554 50.5183 0.393107 50.5183 0.418152C50.4683 0.493287 50.4307 0.555899 50.3931 0.631033C50.343 0.681123 50.3055 0.743735 50.2929 0.806347C50.2679 0.856437 50.2429 0.906526 50.2178 0.956616C50.2053 0.956616 50.1928 0.956616 50.1928 0.956616C50.1928 0.969139 50.2053 0.981661 50.2053 0.981661C50.1552 1.08184 50.0926 1.18202 50.0425 1.2822C50.0175 1.2822 49.9924 1.2822 49.9548 1.29472C49.9799 1.34481 49.9674 1.38238 49.9674 1.41995C49.9423 1.47004 49.9173 1.52012 49.8797 1.57021C49.7795 1.69544 49.6293 1.79562 49.7044 1.92084C49.6668 1.99598 49.6293 2.07111 49.5917 2.15877C49.479 2.14625 49.4289 2.25895 49.4414 2.37165C49.479 2.35913 49.504 2.3466 49.5166 2.3466C49.4539 2.5094 49.4039 2.67219 49.3663 2.8475C49.3412 2.89759 49.2912 2.94768 49.2285 2.97272C49.1534 3.13552 49.1158 3.2357 49.0783 3.36092C49.0157 3.4611 48.953 3.56128 48.9155 3.66146C48.8278 3.84929 48.8028 4.03713 48.8153 4.23749C48.8278 4.35019 48.8278 4.47541 48.8779 4.57559C48.8904 4.58812 48.903 4.60064 48.903 4.61316C48.8278 4.73839 48.8153 4.9137 48.8654 5.01388C49.3913 4.16235 49.4414 4.77595 48.7652 5.37703C48.5649 5.58991 48.5022 5.85288 48.4521 6.17846C48.4772 6.16594 48.4897 6.16594 48.5022 6.15342C48.5022 6.20351 48.5148 6.2536 48.5273 6.30369C48.5649 6.42891 48.665 6.50405 48.7777 6.52909C48.7777 6.54161 48.7652 6.54161 48.7652 6.55414C48.8028 6.52909 48.8153 6.52909 48.8403 6.52909C48.8529 6.52909 48.8654 6.52909 48.8779 6.52909C48.928 6.54161 48.8779 6.64179 49.0157 6.64179C49.1284 6.40387 49.2411 6.20351 49.4539 6.02819C49.4665 6.09081 49.4164 6.12837 49.4289 6.16594C49.6167 6.19099 49.504 6.02819 49.6418 6.02819C49.6919 6.09081 49.5291 6.20351 49.6668 6.21603C49.8296 5.99063 49.9298 5.76522 50.1176 5.57739C50.1302 5.57739 50.1302 5.57739 50.1427 5.56486C50.318 5.47721 50.4182 5.31442 50.4808 5.1391C50.4933 5.08901 50.5058 5.05145 50.5183 5.00136C50.5309 4.97631 50.5434 4.95127 50.5434 4.92622C50.5559 4.90118 50.5684 4.86361 50.581 4.83856C50.606 4.83856 50.6185 4.83856 50.6561 4.83856C50.6686 4.77595 50.6561 4.76343 50.631 4.73839C50.6561 4.6883 50.6811 4.65073 50.7187 4.61316C50.7563 4.58812 50.7813 4.55055 50.9065 4.56307C50.9316 4.50046 50.9316 4.45037 50.9065 4.40028C50.9566 4.35019 51.0067 4.3001 51.0443 4.23749C51.0568 4.22497 51.0568 4.21244 51.0693 4.1874C51.0944 4.1874 51.1069 4.19992 51.1445 4.22497C51.1319 4.1874 51.1445 4.16235 51.1319 4.13731C51.1445 4.13731 51.157 4.13731 51.157 4.12479C51.2196 4.08722 51.2572 4.03713 51.3073 3.98704C51.5327 3.91191 51.5953 3.71155 51.6955 3.5738C51.6704 3.5738 51.6704 3.56128 51.6579 3.56128C51.6955 3.51119 51.7205 3.4611 51.708 3.39849C51.7205 3.38596 51.7205 3.38596 51.708 3.39849C51.7205 3.38596 51.733 3.37344 51.7455 3.36092C51.7581 3.3484 51.7581 3.33587 51.7706 3.32335C51.7706 3.33587 51.7706 3.3484 51.7706 3.37344C51.8833 3.33587 51.9709 3.21065 51.9083 3.09795L51.9209 3.08543C51.9334 3.0729 51.9334 3.04786 51.9459 3.03534C51.9835 3.03534 52.021 3.03534 52.0461 3.03534C52.0085 2.98525 52.0085 2.93516 52.0085 2.91011C52.021 2.89759 52.021 2.87255 52.0336 2.86002C52.0461 2.8475 52.0586 2.83498 52.0586 2.82246C52.0711 2.80993 52.0962 2.78489 52.1087 2.77237C52.1337 2.77237 52.1588 2.79741 52.1838 2.79741C52.2464 2.79741 52.2965 2.78489 52.3466 2.75984C52.3466 2.77237 52.3591 2.79741 52.3717 2.80993C52.4092 2.74732 52.547 2.7348 52.6346 2.69723C52.7098 2.17129 52.9853 1.77057 53.3108 1.38238C53.3108 1.36986 53.3108 1.35733 53.3108 1.34481C53.4611 1.15697 53.5237 0.906526 53.4611 0.668601Z" fill="currentColor"/>
</svg>
