<svg width="20" height="20" viewBox="0 0 20 20" fill="none" xmlns="http://www.w3.org/2000/svg">
<path d="M10 0C4.48615 0 0 4.48615 0 10C0 15.5138 4.48615 20 10 20C15.5138 20 20 15.5138 20 10C20 4.48615 15.5138 0 10 0ZM10 1.53846C14.6815 1.53846 18.4615 5.31846 18.4615 10C18.4615 14.6815 14.6815 18.4615 10 18.4615C5.31846 18.4615 1.53846 14.6815 1.53846 10C1.53846 5.31846 5.31846 1.53846 10 1.53846ZM10 3.84615C7.88462 3.84615 6.15385 5.57692 6.15385 7.69231C6.15385 8.85846 6.69769 9.89462 7.52385 10.6008C6.64731 11.0552 5.91247 11.7417 5.39956 12.5853C4.88665 13.429 4.61538 14.3973 4.61538 15.3846H6.15385C6.15385 13.2515 7.86692 11.5385 10 11.5385C12.1331 11.5385 13.8462 13.2515 13.8462 15.3846H15.3846C15.3846 13.3077 14.2069 11.5 12.4762 10.6008C13.3023 9.89462 13.8462 8.85846 13.8462 7.69231C13.8462 5.57692 12.1154 3.84615 10 3.84615ZM10 5.38462C11.2831 5.38462 12.3077 6.40923 12.3077 7.69231C12.3077 8.97538 11.2831 10 10 10C8.71692 10 7.69231 8.97538 7.69231 7.69231C7.69231 6.40923 8.71692 5.38462 10 5.38462Z" fill="#666876"/>
</svg>
