<svg width="20" height="20" viewBox="0 0 20 20" fill="none" xmlns="http://www.w3.org/2000/svg">
<path d="M1.99074 18.4167H15.287V19.3611H1.99074C1.56508 19.3611 1.22239 19.219 0.932257 18.9289C0.636052 18.6327 0.5 18.303 0.5 17.9167V4.5741H1.49074V17.9167V18.4167H1.99074ZM16.8056 9.5278H17.3056V9.0278V7.03706V6.53706H16.8056H13.3241V3.10188V2.60188H12.8241H10.8796H10.3796V3.10188V6.53706H6.89815H6.39815V7.03706V9.0278V9.5278H6.89815H10.3796V12.963V13.463H10.8796H12.8241H13.3241V12.963V9.5278H16.8056ZM17.7778 0.638916C18.2034 0.638916 18.5461 0.78104 18.8363 1.07117C19.1325 1.36738 19.2685 1.69706 19.2685 2.08336V13.9352C19.2685 14.3609 19.1264 14.7036 18.8363 14.9937C18.5461 15.2838 18.2034 15.426 17.7778 15.426H5.92593C5.50027 15.426 5.15758 15.2838 4.86744 14.9937C4.57731 14.7036 4.43518 14.3609 4.43518 13.9352V2.08336C4.43518 1.69706 4.57124 1.36738 4.86744 1.07117C5.15758 0.78104 5.50027 0.638916 5.92593 0.638916H17.7778Z" fill="currentColor" stroke="currentColor"/>
</svg>
