<svg width="24" height="24" viewBox="0 0 24 24" fill="none" xmlns="http://www.w3.org/2000/svg">
<path d="M3.83107 20.4893L3.83362 20.4918C3.84683 20.5049 3.85628 20.5175 3.86251 20.5268C3.88771 20.5502 3.91474 20.5732 3.94489 20.5986C3.94911 20.6021 3.95341 20.6057 3.95778 20.6094C3.98907 20.6356 4.02403 20.665 4.05796 20.6959M3.83107 20.4893L3.92406 20.8445M3.83107 20.4893C1.50788 18.2635 0.195961 15.1845 0.200009 11.9671C0.208205 5.46039 5.48961 0.192313 11.9963 0.200509L11.9969 0.200508M3.83107 20.4893L11.9969 0.200508M4.05796 20.6959C4.05831 20.6963 4.05866 20.6966 4.05902 20.6969L3.92406 20.8445M4.05796 20.6959C4.05761 20.6956 4.05727 20.6953 4.05693 20.695L3.92406 20.8445M4.05796 20.6959C4.10157 20.7347 4.14474 20.7734 4.18769 20.8118C4.33721 20.9458 4.48407 21.0773 4.63775 21.2025M3.92406 20.8445C3.96671 20.8824 4.00936 20.9206 4.05212 20.9589C4.20266 21.0938 4.35458 21.2298 4.51274 21.3586M4.63775 21.2025C4.63733 21.2022 4.63691 21.2018 4.6365 21.2015L4.51274 21.3586M4.63775 21.2025C4.63818 21.2029 4.6386 21.2032 4.63903 21.2035L4.51274 21.3586M4.63775 21.2025L4.51274 21.3586M11.9969 0.200508C15.2166 0.194584 18.2985 1.50665 20.5258 3.83157C25.0272 8.53003 24.8674 15.9879 20.1688 20.4893L20.1687 20.4892L20.1652 20.4928C20.1526 20.5055 20.1435 20.5177 20.1374 20.5267L11.9969 0.200508ZM9.69114 23.5692L9.6921 23.5693C9.89141 23.6091 10.0932 23.6362 10.3027 23.6644C10.3337 23.6686 10.3649 23.6728 10.3963 23.677L10.3969 23.6771C10.4619 23.6861 10.5201 23.6956 10.5756 23.7046C10.6621 23.7187 10.7421 23.7317 10.8317 23.7404L10.8319 23.7404C11.2185 23.7784 11.6078 23.7995 11.9999 23.7995C12.392 23.7995 12.7814 23.7784 13.1679 23.7404L13.1682 23.7404C13.2578 23.7317 13.3378 23.7187 13.4244 23.7046C13.4799 23.6956 13.538 23.6861 13.603 23.6771L13.6036 23.677C13.6349 23.6728 13.666 23.6686 13.6969 23.6644C13.9064 23.6362 14.1083 23.6091 14.3077 23.5693C14.3877 23.5533 14.4688 23.5331 14.5542 23.5112C14.5662 23.5082 14.5783 23.505 14.5904 23.5019C14.6631 23.4832 14.7392 23.4637 14.8152 23.4465L9.69114 23.5692ZM9.69114 23.5692C9.57535 23.5467 9.46802 23.5189 9.35408 23.4895M9.69114 23.5692L9.35408 23.4895M18.387 20.288L18.3864 20.2885C18.2902 20.3624 18.1921 20.4368 18.0908 20.5091M18.387 20.288L17.9741 20.3467M18.387 20.288C18.5516 20.1606 18.7159 20.0279 18.8757 19.8874C18.9026 19.8642 18.9303 19.8388 18.955 19.8161C18.9659 19.806 18.9762 19.7965 18.9857 19.788L19.0526 19.7274L19.0514 19.6371C19.012 16.6374 17.0849 13.9888 14.243 13.0281L14.1663 13.0021L14.0931 13.0369C12.7666 13.6679 11.2265 13.6679 9.90002 13.0369L9.82684 13.0021L9.75006 13.0281C6.9081 13.9888 4.98107 16.6374 4.94164 19.6371L4.94044 19.7287L5.00905 19.7894C5.01348 19.7934 5.0204 19.7999 5.02901 19.8079C5.0534 19.8307 5.09126 19.8662 5.1237 19.8914L18.387 20.288ZM18.0908 20.5091C18.0906 20.5092 18.0904 20.5094 18.0902 20.5095L17.9741 20.3467M18.0908 20.5091C18.0909 20.509 18.0911 20.5088 18.0913 20.5087L17.9741 20.3467M18.0908 20.5091C17.9323 20.6238 17.7714 20.7321 17.6084 20.8359M17.9741 20.3467C17.819 20.4589 17.6613 20.5652 17.5011 20.6671M17.6084 20.8359C17.6086 20.8358 17.6087 20.8357 17.6088 20.8356L17.5011 20.6671M17.6084 20.8359L17.5011 20.6671M17.6084 20.8359L17.5011 20.6671M14.9716 22.0454L14.9142 21.8539L14.9713 22.0455C14.9714 22.0455 14.9715 22.0455 14.9716 22.0454ZM14.9716 22.0454C14.8125 22.0932 14.6473 22.133 14.4889 22.1711M14.9716 22.0454L14.4889 22.1711M14.4333 22.1845L14.432 22.1849C14.3922 22.1942 14.3507 22.2043 14.3081 22.2148C14.2114 22.2385 14.109 22.2636 14.0083 22.2833L14.008 22.2833C13.8104 22.3217 13.6094 22.3489 13.4142 22.3754L13.3782 22.3803L13.3771 22.3804C13.3398 22.3853 13.2976 22.3916 13.2531 22.3982C13.1762 22.4097 13.0926 22.4223 13.0166 22.4299L13.0157 22.43C12.6814 22.4622 12.3416 22.4815 11.9974 22.4815C11.6532 22.4815 11.3134 22.4622 10.9791 22.43L10.9782 22.4299C10.9023 22.4223 10.8188 22.4098 10.7419 22.3983C10.6974 22.3916 10.655 22.3853 10.6177 22.3804L10.6166 22.3803L10.5806 22.3754C10.3854 22.3489 10.1844 22.3217 9.98677 22.2833L9.98659 22.2833C9.88516 22.2635 9.7822 22.2382 9.68495 22.2144C9.64295 22.2041 9.60203 22.1941 9.56275 22.1848L9.56153 22.1845C9.38464 22.1418 9.2038 22.098 9.02481 22.0459L9.0235 22.0455C8.89729 22.0079 8.77192 21.9646 8.65153 21.923C8.62733 21.9147 8.60333 21.9064 8.57956 21.8982L8.57912 21.8981C8.42041 21.8432 8.25837 21.7863 8.09986 21.7238L8.09981 21.7238C7.93975 21.6606 7.78931 21.5915 7.64262 21.5242L7.64246 21.5241C7.49334 21.4557 7.35779 21.3909 7.21739 21.319L7.21648 21.3185C7.05879 21.2366 6.90188 21.1499 6.74694 21.0557C6.62605 20.9849 6.50514 20.9119 6.38635 20.8359C6.38622 20.8358 6.38609 20.8357 6.38595 20.8356L14.4333 22.1845ZM14.4333 22.1845C14.4517 22.1801 14.4703 22.1756 14.4889 22.1711M14.4333 22.1845L14.4889 22.1711M12.9451 11.8466C13.1941 11.7714 13.4342 11.6697 13.6614 11.5432C13.6666 11.5381 13.6717 11.5381 13.676 11.5381C14.2235 11.2302 14.6759 10.7779 14.9837 10.2304L12.9451 11.8466ZM12.9451 11.8466C12.9271 11.8518 12.9097 11.8577 12.8922 11.8636C12.8663 11.8723 12.8404 11.881 12.8123 11.8877M12.9451 11.8466L12.8123 11.8877M12.5484 11.9408C12.3822 11.9699 12.214 11.9868 12.0454 11.9914H11.9477C11.7791 11.9868 11.6109 11.9699 11.4447 11.9408C11.4354 11.9391 11.426 11.9375 11.4166 11.9358C11.3393 11.922 11.2587 11.9076 11.1808 11.8877M12.5484 11.9408L12.5828 12.1378C12.407 12.1686 12.2292 12.1864 12.0509 12.1913L12.0454 12.1914V12.1914H11.9477H11.9422L11.9422 12.1913C11.7639 12.1864 11.5861 12.1686 11.4103 12.1378L11.4093 12.1377C11.4002 12.136 11.3909 12.1344 11.3814 12.1327C11.305 12.119 11.2168 12.1033 11.1314 12.0815M12.5484 11.9408L12.5583 11.9391C12.6434 11.9242 12.7298 11.9091 12.8123 11.8877M12.5484 11.9408L12.8123 11.8877M11.1314 12.0815C11.132 12.0816 11.1326 12.0818 11.1332 12.0819L11.1808 11.8877M11.1314 12.0815L11.1808 11.8877M11.1314 12.0815C11.1004 12.0738 11.0724 12.0645 11.0513 12.0573L11.0473 12.056C11.026 12.0488 11.0112 12.0438 10.9954 12.0395L10.9902 12.0381L10.9902 12.038C10.7336 11.9606 10.4859 11.8564 10.251 11.7272M11.1808 11.8877C11.1563 11.8817 11.1333 11.8739 11.1098 11.866C11.0899 11.8593 11.0697 11.8525 11.048 11.8466C10.7991 11.7714 10.5589 11.6697 10.3317 11.5432M10.251 11.7272L10.2532 11.7279L10.2686 11.733L10.3317 11.5432M10.251 11.7272C10.2455 11.7241 10.2399 11.7211 10.2344 11.718L10.2892 11.6195L10.3317 11.5432M10.251 11.7272L10.235 11.7218L10.2183 11.7124C8.47198 10.7305 7.85236 8.51894 8.83426 6.77267C9.81617 5.02639 12.0278 4.40677 13.774 5.38868C15.5203 6.37058 16.1399 8.58217 15.158 10.3284C14.8322 10.9078 14.3535 11.3866 13.774 11.7124L13.7284 11.7381H13.7221C13.4932 11.8622 13.2523 11.9628 13.0029 12.038L13.0006 12.0387L13.0006 12.0387C12.9872 12.0426 12.9749 12.0467 12.9581 12.0524C12.9535 12.054 12.9486 12.0556 12.9432 12.0574C12.9208 12.0649 12.8925 12.0741 12.8606 12.0818C12.7706 12.1051 12.6776 12.1213 12.5951 12.1357L12.5828 12.1378L10.3163 11.5381L10.3317 11.5432M22.4789 11.9966C22.48 9.82144 21.8041 7.69982 20.5449 5.92615C17.1952 1.20788 10.6549 0.0984228 5.9366 3.44809C1.21833 6.79776 0.108869 13.3381 3.45854 18.0564L3.72183 18.4273L3.81718 17.9825C4.35427 15.4774 6.00389 13.3536 8.29826 12.2134L8.53648 12.095L8.35659 11.899C6.62168 10.0092 6.62168 7.10597 8.35659 5.21607C10.202 3.20578 13.3278 3.07212 15.3381 4.91758C17.3483 6.76303 17.482 9.88876 15.6366 11.899L15.4567 12.095L15.6949 12.2134C17.9892 13.3536 19.6389 15.4774 20.176 17.9825L20.2708 18.4251L20.5342 18.057C21.7989 16.2892 22.4789 14.1702 22.4789 11.9966ZM22.4789 11.9966L22.2789 11.9965H22.4789C22.4789 11.9966 22.4789 11.9966 22.4789 11.9966ZM9.35408 23.4895C9.30021 23.4756 9.24487 23.4613 9.18646 23.447L9.35408 23.4895ZM5.53868 21.8588C5.53808 21.8584 5.53749 21.8581 5.5369 21.8577L5.43042 22.027L5.5404 21.8599C5.53982 21.8596 5.53925 21.8592 5.53868 21.8588ZM5.95079 22.1132C5.95052 22.113 5.95025 22.1129 5.94998 22.1127L5.84683 22.284L5.95145 22.1136C5.95123 22.1135 5.95101 22.1133 5.95079 22.1132ZM6.50121 22.4331C6.50106 22.433 6.50092 22.4329 6.50078 22.4329L6.40724 22.6096L6.50139 22.4332C6.50133 22.4331 6.50127 22.4331 6.50121 22.4331ZM3.87514 20.5474L3.87459 20.5465C3.87529 20.5477 3.87571 20.5485 3.87514 20.5474ZM20.1248 20.5473C20.1243 20.5482 20.1247 20.5474 20.1255 20.5462L20.1248 20.5473ZM15.4145 21.8985C15.4147 21.8984 15.415 21.8983 15.4152 21.8982L15.3503 21.7091L15.4138 21.8987C15.4141 21.8986 15.4143 21.8986 15.4145 21.8985ZM13.676 11.7381H13.679C13.6758 11.7382 13.6746 11.7381 13.676 11.7381Z" fill="none" stroke="currentColor" stroke-width="0.4"/>
</svg>
