<svg width="24" height="19" viewBox="0 0 24 19" fill="none" xmlns="http://www.w3.org/2000/svg">
<path fill-rule="evenodd" clip-rule="evenodd" d="M11.1172 18.9365C12.3917 19.0886 13.622 18.9618 14.7592 18.6172C18.5385 17.4716 21.3178 13.8778 21.3669 9.61497H23.8374C23.9746 9.61497 24.0481 9.43756 23.9648 9.32098L20.2296 4.06463C20.1659 3.97846 20.0385 3.97846 19.9797 4.06463L16.2445 9.31591C16.1612 9.43756 16.2347 9.6099 16.3719 9.6099H18.8375C18.7934 12.4129 17.1219 14.8054 14.7592 15.8344C13.8671 16.2247 12.8819 16.4224 11.8476 16.3666C10.4261 16.2906 9.11728 15.7381 8.0585 14.8662C7.49479 14.3999 6.67129 14.5114 6.24483 15.1146C5.83798 15.6874 5.95073 16.4883 6.48992 16.9293C7.7938 18.0089 9.38198 18.7287 11.1172 18.9365ZM15.9415 4.1234C14.8876 3.24608 13.5739 2.69331 12.1524 2.62231C11.1132 2.56653 10.128 2.76938 9.24076 3.15479C6.87809 4.18426 5.20168 6.5779 5.16247 9.38231H7.62807C7.76532 9.38231 7.83884 9.5598 7.75551 9.67644L4.02035 14.9353C3.95663 15.0216 3.82918 15.0216 3.77036 14.9353L0.0351944 9.68151C-0.048136 9.5598 0.0253914 9.38738 0.162642 9.38738H2.63314C2.67726 5.12244 5.45657 1.52185 9.24076 0.380812C10.378 0.0359657 11.6083 -0.0857454 12.8828 0.0613213C14.618 0.264172 16.2062 0.984292 17.5101 2.06447C18.0493 2.51074 18.162 3.30693 17.7552 3.87998C17.3287 4.47839 16.5052 4.58996 15.9415 4.1234Z" fill="#959595"/>
</svg>
