<svg width="16" height="16" viewBox="0 0 16 16" fill="none" xmlns="http://www.w3.org/2000/svg">
<path d="M7.5 1H8.5V3.48H7.5V1Z" fill="currentColor"/>
<path d="M10.8438 4.44491L12.5972 2.69141L13.3042 3.39891L11.5507 5.15241L10.8438 4.44491Z" fill="currentColor"/>
<path d="M12.5195 7.5H14.9995V8.5H12.5195V7.5Z" fill="currentColor"/>
<path d="M10.8467 11.5517L11.5537 10.8447L13.3072 12.5987L12.6002 13.3052L10.8467 11.5517Z" fill="currentColor"/>
<path d="M7.5 12.52H8.5V15H7.5V12.52Z" fill="currentColor"/>
<path d="M2.69824 12.6012L4.45174 10.8477L5.15874 11.5547L3.40524 13.3087L2.69824 12.6012Z" fill="currentColor"/>
<path d="M1 7.5H3.48V8.5H1V7.5Z" fill="currentColor"/>
<path d="M2.69531 3.40132L3.40331 2.69482L5.15681 4.44882L4.44981 5.15582L2.69531 3.40132Z" fill="currentColor"/>
<path d="M8 6C8.39556 6 8.78224 6.1173 9.11114 6.33706C9.44004 6.55682 9.69638 6.86918 9.84776 7.23463C9.99914 7.60009 10.0387 8.00222 9.96157 8.39018C9.8844 8.77814 9.69392 9.13451 9.41421 9.41421C9.13451 9.69392 8.77814 9.8844 8.39018 9.96157C8.00222 10.0387 7.60009 9.99913 7.23463 9.84776C6.86918 9.69638 6.55682 9.44004 6.33706 9.11114C6.1173 8.78224 6 8.39556 6 8C6 7.46957 6.21071 6.96086 6.58579 6.58579C6.96086 6.21071 7.46957 6 8 6ZM8 5C7.40666 5 6.82664 5.17595 6.33329 5.50559C5.83994 5.83524 5.45543 6.30377 5.22836 6.85195C5.0013 7.40013 4.94189 8.00333 5.05765 8.58527C5.1734 9.16721 5.45912 9.70176 5.87868 10.1213C6.29824 10.5409 6.83279 10.8266 7.41473 10.9424C7.99667 11.0581 8.59987 10.9987 9.14805 10.7716C9.69623 10.5446 10.1648 10.1601 10.4944 9.66671C10.8241 9.17336 11 8.59334 11 8C11 7.20435 10.6839 6.44129 10.1213 5.87868C9.55871 5.31607 8.79565 5 8 5Z" fill="currentColor"/>
</svg>
